<svg width="479" height="360" viewBox="0 0 479 360" fill="none" xmlns="http://www.w3.org/2000/svg">
<path d="M83.9715 35.3354C83.895 36.1142 83.8525 36.9071 83.8525 37.7084V217.885C83.854 224.377 86.4339 230.601 91.0248 235.191C95.6157 239.78 101.841 242.358 108.333 242.357H371.649C378.14 242.357 384.365 239.779 388.955 235.19C393.545 230.601 396.125 224.376 396.126 217.885V37.7084C396.126 36.9071 396.084 36.1142 396.007 35.3354H83.9715Z" fill="white"/>
<path fill-rule="evenodd" clip-rule="evenodd" d="M83.5351 35.2931C83.5571 35.0686 83.7459 34.8975 83.9714 34.8975H396.007C396.233 34.8975 396.422 35.0686 396.444 35.2931C396.521 36.0848 396.565 36.892 396.565 37.7089V217.886C396.563 224.493 393.938 230.829 389.265 235.5C384.593 240.172 378.256 242.796 371.649 242.796H108.333C101.725 242.797 95.3879 240.173 90.7148 235.501C86.0417 230.83 83.4156 224.493 83.4141 217.886V37.7089C83.4141 36.8921 83.4574 36.0848 83.5351 35.2931ZM84.3721 35.7743C84.3195 36.4121 84.2909 37.0579 84.2909 37.7089V217.886C84.2924 224.261 86.8261 230.374 91.3347 234.881C95.8434 239.388 101.958 241.92 108.333 241.919H371.649C378.024 241.919 384.137 239.387 388.645 234.88C393.153 230.373 395.686 224.26 395.688 217.886V37.7089C395.688 37.0579 395.659 36.4121 395.607 35.7743H84.3721Z" fill="#0E101A"/>
<path fill-rule="evenodd" clip-rule="evenodd" d="M327.318 174.671C327.56 174.671 327.757 174.867 327.757 175.109V176.37H329.017C329.26 176.37 329.456 176.566 329.456 176.808C329.456 177.051 329.26 177.247 329.017 177.247H327.318C327.076 177.247 326.88 177.051 326.88 176.808V175.109C326.88 174.867 327.076 174.671 327.318 174.671Z" fill="#0E101A"/>
<path d="M239.99 359.301C239.99 359.301 278.604 310.007 362.454 310.007C446.304 310.007 474.938 359.562 474.938 359.562L239.99 359.301Z" fill="#B8D2F0"/>
<path fill-rule="evenodd" clip-rule="evenodd" d="M240.921 358.864L474.152 359.122C473.927 358.77 473.606 358.285 473.186 357.683C472.247 356.339 470.81 354.415 468.822 352.104C464.848 347.482 458.675 341.314 449.889 335.143C432.32 322.804 404.287 310.445 362.455 310.445C320.62 310.445 290.083 322.741 270.008 335.028C259.969 341.172 252.546 347.315 247.635 351.919C245.179 354.22 243.351 356.137 242.139 357.477C241.621 358.05 241.215 358.517 240.921 358.864ZM474.939 359.561C475.319 359.342 475.319 359.342 475.318 359.341L475.317 359.339L475.312 359.331L475.296 359.302C475.281 359.277 475.259 359.24 475.23 359.192C475.171 359.096 475.084 358.954 474.967 358.77C474.734 358.402 474.382 357.864 473.904 357.181C472.95 355.815 471.495 353.867 469.487 351.533C465.472 346.863 459.246 340.643 450.393 334.425C432.681 321.986 404.473 309.568 362.455 309.568C320.439 309.568 289.745 321.919 269.55 334.28C259.454 340.459 251.984 346.64 247.035 351.279C244.56 353.598 242.716 355.532 241.489 356.889C240.875 357.567 240.416 358.1 240.11 358.465C239.956 358.648 239.841 358.788 239.764 358.883C239.725 358.931 239.696 358.967 239.677 358.992L239.654 359.02L239.648 359.028L239.647 359.03C239.646 359.03 239.646 359.031 239.991 359.301L239.646 359.031C239.543 359.163 239.524 359.342 239.597 359.493C239.67 359.643 239.823 359.739 239.991 359.739L474.939 360C475.095 360 475.24 359.917 475.319 359.781C475.397 359.645 475.397 359.478 475.319 359.342L474.939 359.561Z" fill="#0E101A"/>
<path d="M0.439453 359.556C0.439453 359.556 20.2615 316.885 67.8996 316.885C115.538 316.885 122.781 359.556 122.781 359.556H0.439453Z" fill="#B8D2F0"/>
<path fill-rule="evenodd" clip-rule="evenodd" d="M1.14326 359.118H122.248C122.184 358.813 122.087 358.377 121.95 357.829C121.662 356.674 121.197 355.021 120.491 353.036C119.078 349.065 116.701 343.771 112.849 338.479C105.156 327.91 91.5607 317.324 67.8986 317.324C44.2238 317.324 27.4632 327.923 16.6108 338.534C11.1835 343.841 7.23679 349.148 4.6475 353.128C3.35306 355.118 2.3985 356.775 1.76832 357.932C1.50268 358.421 1.29472 358.82 1.14326 359.118ZM122.78 359.556C123.212 359.483 123.212 359.483 123.212 359.482L123.212 359.48L123.211 359.473L123.206 359.448C123.205 359.438 123.202 359.426 123.2 359.412C123.197 359.395 123.193 359.375 123.189 359.353C123.173 359.27 123.149 359.147 123.117 358.988C123.051 358.67 122.948 358.206 122.801 357.617C122.507 356.438 122.034 354.757 121.317 352.742C119.883 348.713 117.472 343.339 113.558 337.963C105.72 327.196 91.8744 316.447 67.8986 316.447C43.9352 316.447 26.9659 327.183 15.9977 337.907C10.5147 343.268 6.52851 348.629 3.91248 352.65C2.60425 354.661 1.63804 356.338 0.998118 357.513C0.67814 358.101 0.43969 358.564 0.280804 358.881C0.201359 359.039 0.141802 359.161 0.101885 359.243C0.0819273 359.285 0.066879 359.316 0.05671 359.338L0.045112 359.363L0.0412023 359.371C0.040968 359.371 0.0408094 359.372 0.438444 359.556L0.0408094 359.372C-0.0222633 359.507 -0.0116952 359.666 0.0688372 359.792C0.14937 359.918 0.288733 359.995 0.438444 359.995H122.78C122.909 359.995 123.032 359.938 123.115 359.839C123.198 359.741 123.234 359.61 123.212 359.483L122.78 359.556Z" fill="#0E101A"/>
<path d="M77.5583 344.698C77.5583 344.698 36.9061 332.239 52.4041 252.498C88.4859 274.585 87.2144 340.125 87.2144 340.125L77.5583 344.698Z" fill="#0E101A"/>
<path fill-rule="evenodd" clip-rule="evenodd" d="M52.3152 252.296C52.3809 252.267 52.4567 252.273 52.518 252.31C70.639 263.403 79.3583 285.388 83.5535 304.547C85.6526 314.133 86.6224 323.027 87.0675 329.524C87.29 332.773 87.3815 335.423 87.4172 337.261C87.4351 338.18 87.4391 338.897 87.4386 339.384C87.4383 339.627 87.437 339.813 87.4356 339.938C87.435 340.001 87.4343 340.048 87.4339 340.08L87.4333 340.117L87.4331 340.128C87.4331 340.128 87.4331 340.129 87.3978 340.128C87.3682 340.128 87.3138 340.127 87.2139 340.125L87.4331 340.129C87.4314 340.212 87.3829 340.287 87.3077 340.323L77.6515 344.896C77.6021 344.919 77.5457 344.924 77.4935 344.908L77.5577 344.698C77.4935 344.908 77.4931 344.907 77.4926 344.907L77.4908 344.907L77.4845 344.905L77.4609 344.897C77.4404 344.891 77.4103 344.881 77.371 344.867C77.2923 344.841 77.1769 344.8 77.0277 344.744C76.7292 344.631 76.2953 344.457 75.7497 344.206C74.6586 343.705 73.1205 342.901 71.3251 341.687C67.7339 339.258 63.1141 335.187 58.9833 328.617C50.7195 315.474 44.4321 292.363 52.1883 252.455C52.202 252.385 52.2494 252.325 52.3152 252.296ZM77.5426 344.463L86.9966 339.985C86.9968 339.969 86.997 339.952 86.9972 339.934C86.9985 339.81 86.9999 339.625 87.0001 339.383C87.0006 338.899 86.9967 338.186 86.9789 337.27C86.9432 335.438 86.8521 332.795 86.6301 329.554C86.186 323.072 85.2185 314.2 83.1252 304.641C78.9568 285.604 70.3368 263.897 52.5584 252.85C44.9097 292.492 51.188 315.396 59.3544 328.384C63.4494 334.897 68.0241 338.925 71.5708 341.324C73.3443 342.523 74.8612 343.316 75.9327 343.808C76.4684 344.054 76.8928 344.224 77.1822 344.333C77.3269 344.388 77.4379 344.427 77.5122 344.452C77.5231 344.456 77.5333 344.459 77.5426 344.463Z" fill="#0E101A"/>
<path fill-rule="evenodd" clip-rule="evenodd" d="M53.2961 254.109C53.5214 254.045 53.7569 254.17 53.831 254.392L80.2567 333.638C80.3218 333.833 80.2423 334.047 80.0655 334.153C79.8888 334.259 79.6625 334.227 79.5214 334.077C78.1415 332.61 76.7049 330.261 75.2478 327.309C73.7868 324.348 72.2902 320.75 70.7985 316.762C67.815 308.786 64.8416 299.222 62.2042 290.021C59.5662 280.818 57.2623 271.971 55.618 265.425C54.7958 262.151 54.1384 259.453 53.6865 257.573C53.4606 256.633 53.286 255.897 53.1679 255.397C53.1088 255.147 53.0639 254.955 53.0337 254.826L52.9882 254.631C52.9881 254.63 52.988 254.63 53.4151 254.531L52.988 254.63C52.9351 254.402 53.0707 254.172 53.2961 254.109ZM56.3292 264.656C56.3751 264.839 56.4215 265.024 56.4685 265.211C58.1113 271.751 60.4127 280.588 63.0471 289.779C65.6819 298.971 68.648 308.51 71.6198 316.455C73.1058 320.428 74.5909 323.996 76.0342 326.921C76.9203 328.716 77.7851 330.257 78.6183 331.497L56.3292 264.656Z" fill="white"/>
<path d="M74.2494 359.556C74.2494 359.556 61.5463 299.241 113.378 275.865C135.749 309.902 108.805 359.556 108.805 359.556H74.2494Z" fill="white"/>
<path fill-rule="evenodd" clip-rule="evenodd" d="M113.199 275.465C113.395 275.376 113.627 275.444 113.746 275.624C125.03 292.794 123.858 313.866 119.908 330.575C117.931 338.939 115.254 346.233 113.071 351.436C111.979 354.037 111.01 356.117 110.314 357.548C109.966 358.263 109.686 358.816 109.493 359.191C109.396 359.379 109.321 359.522 109.27 359.618C109.244 359.666 109.225 359.703 109.212 359.727L109.197 359.755L109.193 359.763L109.192 359.765C109.191 359.765 109.191 359.765 108.806 359.556L109.191 359.765C109.115 359.907 108.967 359.995 108.806 359.995H74.2504C74.0431 359.995 73.8641 359.85 73.8214 359.647L74.2504 359.556C73.8214 359.647 73.8213 359.646 73.8211 359.646L73.8206 359.643L73.8187 359.634L73.8117 359.6C73.8056 359.57 73.7967 359.525 73.7852 359.467C73.7624 359.35 73.7294 359.177 73.6888 358.951C73.6076 358.499 73.4957 357.835 73.3719 356.982C73.1243 355.277 72.8292 352.818 72.6378 349.794C72.2552 343.749 72.2868 335.442 73.9466 326.397C77.2674 308.3 87.1147 287.229 113.199 275.465ZM74.6112 359.118H108.542C108.588 359.032 108.645 358.922 108.713 358.789C108.904 358.42 109.181 357.873 109.526 357.164C110.216 355.747 111.177 353.681 112.262 351.096C114.432 345.925 117.092 338.678 119.055 330.374C122.96 313.85 124.085 293.23 113.217 276.42C87.7256 288.061 78.08 308.73 74.8091 326.556C73.1656 335.512 73.1335 343.744 73.513 349.739C73.7027 352.736 73.995 355.171 74.2397 356.856C74.362 357.698 74.4723 358.353 74.5519 358.796C74.5742 358.92 74.5941 359.027 74.6112 359.118Z" fill="#0E101A"/>
<path d="M371.649 13.2368H108.332C102.255 13.2381 96.3963 15.5 91.895 19.5826C87.3937 23.6652 84.5722 29.2763 83.9795 35.3243H396.01C395.417 29.2749 392.594 23.6625 388.091 19.5798C383.588 15.497 377.727 13.236 371.649 13.2368V13.2368Z" fill="#0E101A"/>
<path fill-rule="evenodd" clip-rule="evenodd" d="M371.65 13.0171C377.783 13.0162 383.696 15.2975 388.24 19.4168C392.783 23.5362 395.631 29.1988 396.229 35.3024C396.235 35.3639 396.215 35.4252 396.174 35.471C396.132 35.5168 396.073 35.543 396.011 35.543H83.9809C83.9191 35.543 83.8601 35.5168 83.8185 35.471C83.777 35.4252 83.7567 35.3639 83.7628 35.3024C84.3608 29.2003 87.2076 23.5389 91.7492 19.4197C96.2908 15.3006 102.202 13.0184 108.334 13.0171H371.65ZM387.945 19.7417C383.483 15.6955 377.674 13.4547 371.65 13.4555H108.334C108.334 13.4555 108.334 13.4555 108.334 13.4555C102.311 13.4568 96.5047 15.6985 92.0437 19.7445C87.6425 23.7363 84.8617 29.2027 84.2239 35.1045H395.768C395.13 29.2012 392.348 23.7337 387.945 19.7417Z" fill="#0E101A"/>
<path fill-rule="evenodd" clip-rule="evenodd" d="M113.584 275.477C113.764 275.573 113.854 275.779 113.803 275.976L92.1204 358.778C92.0637 358.995 91.8531 359.134 91.6318 359.101C91.4105 359.068 91.2494 358.874 91.2582 358.65L91.6963 358.667C91.2582 358.65 91.2582 358.65 91.2582 358.649L91.26 358.605C91.2612 358.575 91.2631 358.531 91.2656 358.473C91.2707 358.356 91.2786 358.184 91.2897 357.958C91.3119 357.505 91.3469 356.84 91.3983 355.986C91.5011 354.277 91.6695 351.813 91.9319 348.787C92.4568 342.736 93.3581 334.438 94.864 325.449C96.3697 316.461 98.4812 306.775 101.429 297.951C104.374 289.134 108.166 281.143 113.049 275.576C113.183 275.423 113.405 275.382 113.584 275.477ZM92.3841 354.31L112.453 277.67C108.274 283.007 104.929 290.241 102.261 298.229C99.3324 306.994 97.2301 316.632 95.7289 325.594C94.2278 334.553 93.329 342.828 92.8056 348.863C92.6223 350.975 92.4851 352.813 92.3841 354.31Z" fill="#0E101A"/>
<path d="M171.092 63.5474H115.69C108.426 63.5474 102.537 69.4363 102.537 76.7007V144.028C102.537 151.292 108.426 157.181 115.69 157.181H171.092C178.356 157.181 184.245 151.292 184.245 144.028V76.7007C184.245 69.4363 178.356 63.5474 171.092 63.5474Z" fill="white"/>
<path fill-rule="evenodd" clip-rule="evenodd" d="M102.099 76.7006C102.099 69.1941 108.184 63.1089 115.69 63.1089H171.092C178.598 63.1089 184.683 69.1941 184.683 76.7006V144.028C184.683 151.535 178.598 157.62 171.092 157.62H115.69C108.184 157.62 102.099 151.535 102.099 144.028V76.7006ZM115.69 63.9858C108.668 63.9858 102.976 69.6784 102.976 76.7006V144.028C102.976 151.05 108.668 156.743 115.69 156.743H171.092C178.114 156.743 183.807 151.05 183.807 144.028V76.7006C183.807 69.6784 178.114 63.9858 171.092 63.9858H115.69Z" fill="#0E101A"/>
<path d="M362.892 63.5474H207.775C202.932 63.5474 199.006 67.4733 199.006 72.3162V86.4945C199.006 91.3374 202.932 95.2633 207.775 95.2633H362.892C367.735 95.2633 371.661 91.3374 371.661 86.4945V72.3162C371.661 67.4733 367.735 63.5474 362.892 63.5474Z" fill="white"/>
<path fill-rule="evenodd" clip-rule="evenodd" d="M198.567 72.3162C198.567 67.2311 202.69 63.1089 207.775 63.1089H362.893C367.978 63.1089 372.1 67.2311 372.1 72.3162V86.4944C372.1 91.5795 367.978 95.7018 362.893 95.7018H207.775C202.69 95.7018 198.567 91.5795 198.567 86.4944V72.3162ZM207.775 63.9858C203.174 63.9858 199.444 67.7154 199.444 72.3162V86.4944C199.444 91.0952 203.174 94.8249 207.775 94.8249H362.893C367.493 94.8249 371.223 91.0952 371.223 86.4944V72.3162C371.223 67.7154 367.493 63.9858 362.893 63.9858H207.775Z" fill="#0E101A"/>
<path d="M262.161 46.02H202.472C200.558 46.02 199.006 47.572 199.006 49.4865C199.006 51.401 200.558 52.953 202.472 52.953H262.161C264.075 52.953 265.627 51.401 265.627 49.4865C265.627 47.572 264.075 46.02 262.161 46.02Z" fill="white"/>
<path fill-rule="evenodd" clip-rule="evenodd" d="M198.567 49.4865C198.567 47.3298 200.316 45.5815 202.472 45.5815H262.161C264.318 45.5815 266.066 47.3298 266.066 49.4865C266.066 51.6431 264.318 53.3914 262.161 53.3914H202.472C200.316 53.3914 198.567 51.6431 198.567 49.4865ZM202.472 46.4584C200.8 46.4584 199.444 47.8141 199.444 49.4865C199.444 51.1588 200.8 52.5145 202.472 52.5145H262.161C263.833 52.5145 265.189 51.1588 265.189 49.4865C265.189 47.8141 263.833 46.4584 262.161 46.4584H202.472Z" fill="#0E101A"/>
<path d="M362.892 103.806H207.775C202.932 103.806 199.006 107.732 199.006 112.575V126.753C199.006 131.596 202.932 135.522 207.775 135.522H362.892C367.735 135.522 371.661 131.596 371.661 126.753V112.575C371.661 107.732 367.735 103.806 362.892 103.806Z" fill="white"/>
<path fill-rule="evenodd" clip-rule="evenodd" d="M198.567 112.575C198.567 107.489 202.69 103.367 207.775 103.367H362.893C367.978 103.367 372.1 107.489 372.1 112.575V126.753C372.1 131.838 367.978 135.96 362.893 135.96H207.775C202.69 135.96 198.567 131.838 198.567 126.753V112.575ZM207.775 104.244C203.174 104.244 199.444 107.974 199.444 112.575V126.753C199.444 131.354 203.174 135.083 207.775 135.083H362.893C367.493 135.083 371.223 131.354 371.223 126.753V112.575C371.223 107.974 367.493 104.244 362.893 104.244H207.775Z" fill="#0E101A"/>
<path d="M362.892 144.017H207.775C202.932 144.017 199.006 147.943 199.006 152.785V166.964C199.006 171.807 202.932 175.733 207.775 175.733H362.892C367.735 175.733 371.661 171.807 371.661 166.964V152.785C371.661 147.943 367.735 144.017 362.892 144.017Z" fill="white"/>
<path fill-rule="evenodd" clip-rule="evenodd" d="M198.567 152.786C198.567 147.701 202.69 143.579 207.775 143.579H362.893C367.978 143.579 372.1 147.701 372.1 152.786V166.964C372.1 172.049 367.978 176.171 362.893 176.171H207.775C202.69 176.171 198.567 172.049 198.567 166.964V152.786ZM207.775 144.456C203.174 144.456 199.444 148.185 199.444 152.786V166.964C199.444 171.565 203.174 175.295 207.775 175.295H362.893C367.493 175.295 371.223 171.565 371.223 166.964V152.786C371.223 148.185 367.493 144.456 362.893 144.456H207.775Z" fill="#0E101A"/>
<path d="M362.892 184.228H207.775C202.932 184.228 199.006 188.154 199.006 192.997V207.175C199.006 212.018 202.932 215.944 207.775 215.944H362.892C367.735 215.944 371.661 212.018 371.661 207.175V192.997C371.661 188.154 367.735 184.228 362.892 184.228Z" fill="white"/>
<path fill-rule="evenodd" clip-rule="evenodd" d="M198.567 192.997C198.567 187.912 202.69 183.79 207.775 183.79H362.893C367.978 183.79 372.1 187.912 372.1 192.997V207.175C372.1 212.26 367.978 216.382 362.893 216.382H207.775C202.69 216.382 198.567 212.26 198.567 207.175V192.997ZM207.775 184.666C203.174 184.666 199.444 188.396 199.444 192.997V207.175C199.444 211.776 203.174 215.506 207.775 215.506H362.893C367.493 215.506 371.223 211.776 371.223 207.175V192.997C371.223 188.396 367.493 184.666 362.893 184.666H207.775Z" fill="#0E101A"/>
<path d="M362.892 224.439H207.775C202.932 224.439 199.006 228.365 199.006 233.208V242.357H371.661V233.208C371.661 228.365 367.735 224.439 362.892 224.439Z" fill="white"/>
<path fill-rule="evenodd" clip-rule="evenodd" d="M198.567 233.208C198.567 228.123 202.69 224 207.775 224H362.893C367.978 224 372.1 228.123 372.1 233.208V242.357C372.1 242.599 371.904 242.795 371.661 242.795H199.006C198.764 242.795 198.567 242.599 198.567 242.357V233.208ZM207.775 224.877C203.174 224.877 199.444 228.607 199.444 233.208V241.918H371.223V233.208C371.223 228.607 367.493 224.877 362.893 224.877H207.775Z" fill="#0E101A"/>
<path d="M143.005 0.219727H140.686V17.9831H143.005V0.219727Z" fill="#0E101A"/>
<path fill-rule="evenodd" clip-rule="evenodd" d="M140.467 0.219222C140.467 0.0981489 140.565 0 140.686 0H143.005C143.126 0 143.224 0.0981489 143.224 0.219222V17.9826C143.224 18.1037 143.126 18.2018 143.005 18.2018H140.686C140.565 18.2018 140.467 18.1037 140.467 17.9826V0.219222ZM140.905 0.438444V17.7634H142.786V0.438444H140.905Z" fill="#0E101A"/>
<path d="M342.12 0.219727H339.801V17.9831H342.12V0.219727Z" fill="#0E101A"/>
<path fill-rule="evenodd" clip-rule="evenodd" d="M339.581 0.219222C339.581 0.0981489 339.679 0 339.8 0H342.119C342.241 0 342.339 0.0981489 342.339 0.219222V17.9826C342.339 18.1037 342.241 18.2018 342.119 18.2018H339.8C339.679 18.2018 339.581 18.1037 339.581 17.9826V0.219222ZM340.019 0.438444V17.7634H341.9V0.438444H340.019Z" fill="#0E101A"/>
<path fill-rule="evenodd" clip-rule="evenodd" d="M332.104 176.808C332.104 176.566 332.3 176.37 332.542 176.37H335.276C335.518 176.37 335.715 176.566 335.715 176.808C335.715 177.05 335.518 177.247 335.276 177.247H332.542C332.3 177.247 332.104 177.05 332.104 176.808ZM340.306 176.808C340.306 176.566 340.503 176.37 340.745 176.37H346.214C346.456 176.37 346.652 176.566 346.652 176.808C346.652 177.05 346.456 177.247 346.214 177.247H340.745C340.503 177.247 340.306 177.05 340.306 176.808ZM351.244 176.808C351.244 176.566 351.44 176.37 351.682 176.37H357.151C357.393 176.37 357.589 176.566 357.589 176.808C357.589 177.05 357.393 177.247 357.151 177.247H351.682C351.44 177.247 351.244 177.05 351.244 176.808ZM362.181 176.808C362.181 176.566 362.377 176.37 362.619 176.37H368.088C368.33 176.37 368.526 176.566 368.526 176.808C368.526 177.05 368.33 177.247 368.088 177.247H362.619C362.377 177.247 362.181 177.05 362.181 176.808ZM373.118 176.808C373.118 176.566 373.314 176.37 373.557 176.37H379.025C379.267 176.37 379.464 176.566 379.464 176.808C379.464 177.05 379.267 177.247 379.025 177.247H373.557C373.314 177.247 373.118 177.05 373.118 176.808ZM384.055 176.808C384.055 176.566 384.252 176.37 384.494 176.37H387.228C387.47 176.37 387.667 176.566 387.667 176.808C387.667 177.05 387.47 177.247 387.228 177.247H384.494C384.252 177.247 384.055 177.05 384.055 176.808Z" fill="#0E101A"/>
<path fill-rule="evenodd" clip-rule="evenodd" d="M390.692 174.671C390.934 174.671 391.131 174.867 391.131 175.109V176.808C391.131 177.051 390.934 177.247 390.692 177.247H388.993C388.751 177.247 388.555 177.051 388.555 176.808C388.555 176.566 388.751 176.37 388.993 176.37H390.254V175.109C390.254 174.867 390.45 174.671 390.692 174.671Z" fill="#0E101A"/>
<path d="M380.928 272.563L386.025 344.953C386.025 344.953 391.892 347.289 393.73 345.76C393.268 315.28 400.469 272.563 400.469 272.563H380.928Z" fill="white"/>
<path fill-rule="evenodd" clip-rule="evenodd" d="M380.608 272.264C380.691 272.175 380.807 272.125 380.929 272.125H400.47C400.599 272.125 400.722 272.181 400.805 272.28C400.889 272.378 400.924 272.509 400.903 272.636L400.47 272.563C400.903 272.636 400.903 272.636 400.903 272.636L400.882 272.758C400.869 272.84 400.849 272.961 400.822 273.121C400.77 273.441 400.693 273.914 400.595 274.527C400.399 275.753 400.12 277.539 399.786 279.778C399.119 284.256 398.234 290.544 397.363 297.784C395.621 312.268 393.939 330.543 394.169 345.754C394.171 345.886 394.113 346.012 394.011 346.097C393.43 346.581 392.587 346.722 391.75 346.718C390.895 346.713 389.953 346.557 389.09 346.357C388.224 346.157 387.419 345.908 386.831 345.71C386.537 345.611 386.296 345.524 386.129 345.462C386.045 345.43 385.979 345.405 385.934 345.388C385.912 345.379 385.895 345.373 385.883 345.368L385.869 345.363L385.865 345.361L385.864 345.361C385.864 345.361 385.864 345.36 386.026 344.953L385.864 345.36C385.707 345.298 385.6 345.152 385.588 344.984L380.491 272.594C380.483 272.472 380.525 272.353 380.608 272.264ZM386.443 344.643C386.604 344.702 386.832 344.785 387.111 344.879C387.682 345.071 388.458 345.311 389.288 345.503C390.121 345.696 390.992 345.837 391.754 345.841C392.42 345.844 392.941 345.742 393.289 345.536C393.078 330.312 394.758 312.101 396.492 297.679C397.364 290.429 398.25 284.133 398.919 279.649C399.253 277.407 399.533 275.618 399.729 274.389C399.825 273.788 399.901 273.322 399.953 273.001H381.399L386.443 344.643Z" fill="#0E101A"/>
<path d="M420.356 344.09C419 325.633 416.514 268.242 416.514 268.242L397.541 261.381C398.416 273.072 400.031 284.696 402.375 296.183C405.682 312.106 411.323 340.924 413.724 347.488C413.704 347.491 420.741 349.32 420.356 344.09Z" fill="white"/>
<path fill-rule="evenodd" clip-rule="evenodd" d="M397.276 261.032C397.394 260.942 397.55 260.918 397.69 260.969L416.663 267.83C416.83 267.89 416.944 268.046 416.952 268.223L416.514 268.242C416.952 268.223 416.952 268.223 416.952 268.224L416.98 268.872C416.998 269.297 417.026 269.922 417.061 270.725C417.132 272.33 417.234 274.644 417.361 277.478C417.615 283.147 417.969 290.897 418.364 299.224C419.155 315.88 420.116 334.836 420.793 344.058C420.793 344.058 420.793 344.058 420.793 344.058C420.897 345.47 420.5 346.476 419.779 347.148C419.076 347.803 418.126 348.084 417.227 348.187C416.322 348.291 415.417 348.221 414.746 348.128C414.409 348.081 414.127 348.028 413.929 347.986C413.83 347.965 413.751 347.947 413.696 347.934C413.669 347.927 413.646 347.921 413.63 347.917C413.622 347.915 413.613 347.912 413.605 347.91C413.604 347.91 413.6 347.908 413.594 347.907C413.591 347.906 413.587 347.904 413.582 347.903C413.581 347.902 413.559 347.895 413.534 347.883C413.512 347.871 413.43 347.813 413.378 347.756C413.364 347.713 413.358 347.668 413.357 347.622L413.724 347.488L413.662 347.054C413.543 347.092 413.355 347.363 413.357 347.622L413.313 347.638C412.098 344.32 410.081 335.436 407.96 325.436C406.63 319.163 405.255 312.428 404.007 306.316C403.262 302.67 402.563 299.245 401.945 296.272L401.945 296.27C399.598 284.765 397.981 273.123 397.104 261.414C397.093 261.265 397.157 261.121 397.276 261.032ZM416.088 268.555L398.03 262.024C398.915 273.468 400.509 284.847 402.804 296.094C403.423 299.073 404.123 302.5 404.868 306.148C406.115 312.257 407.488 318.983 408.818 325.254C410.899 335.066 412.861 343.707 414.057 347.117C414.074 347.12 414.091 347.124 414.11 347.128C414.291 347.166 414.553 347.216 414.866 347.259C415.498 347.347 416.323 347.408 417.127 347.316C417.937 347.223 418.673 346.98 419.181 346.507C419.67 346.051 420.007 345.325 419.919 344.122C419.24 334.887 418.279 315.918 417.488 299.265C417.093 290.937 416.739 283.186 416.485 277.517C416.358 274.683 416.256 272.369 416.185 270.763C416.15 269.961 416.122 269.335 416.104 268.91L416.088 268.555Z" fill="#0E101A"/>
<path d="M427.957 168.299C427.957 168.299 445.066 194.589 438.967 218.591C432.867 242.592 419.912 275.738 419.912 275.738H378.75C378.75 275.738 357.796 210.209 371.127 168.299C396.282 166.393 427.957 168.299 427.957 168.299Z" fill="#0E101A"/>
<path fill-rule="evenodd" clip-rule="evenodd" d="M371.291 168.506C364.695 189.388 366.592 216.132 370.155 237.698C371.94 248.501 374.141 257.995 375.896 264.788C376.774 268.185 377.54 270.906 378.086 272.778C378.359 273.714 378.577 274.437 378.727 274.927C378.802 275.171 378.86 275.357 378.899 275.482C378.903 275.495 378.907 275.507 378.911 275.518H419.762C419.785 275.457 419.816 275.378 419.854 275.28C419.951 275.031 420.093 274.664 420.276 274.187C420.642 273.235 421.171 271.847 421.826 270.106C423.136 266.624 424.945 261.733 426.945 256.091C430.946 244.806 435.707 230.527 438.754 218.536C441.788 206.598 439.052 194.075 435.543 184.519C433.79 179.744 431.846 175.717 430.341 172.884C429.589 171.468 428.946 170.35 428.492 169.587C428.264 169.206 428.084 168.913 427.961 168.716C427.907 168.629 427.864 168.56 427.832 168.511C427.773 168.507 427.689 168.503 427.582 168.497C427.345 168.483 426.992 168.464 426.535 168.439C425.62 168.391 424.285 168.324 422.605 168.25C419.243 168.101 414.5 167.922 408.97 167.803C397.953 167.566 383.821 167.565 371.291 168.506ZM427.957 168.299C428.14 168.179 428.141 168.179 428.141 168.179L428.141 168.18L428.144 168.184L428.153 168.199C428.162 168.212 428.174 168.231 428.19 168.257C428.223 168.308 428.271 168.384 428.333 168.484C428.458 168.683 428.64 168.979 428.868 169.363C429.326 170.131 429.972 171.255 430.728 172.679C432.241 175.525 434.193 179.57 435.955 184.368C439.476 193.958 442.245 206.581 439.179 218.644C436.127 230.655 431.36 244.949 427.358 256.237C425.357 261.882 423.547 266.777 422.237 270.26C421.581 272.002 421.051 273.391 420.685 274.345C420.502 274.821 420.36 275.189 420.263 275.438C420.215 275.563 420.178 275.657 420.153 275.721L420.117 275.815L420.116 275.816C420.116 275.817 420.116 275.817 420.091 275.807C420.065 275.797 420.015 275.777 419.914 275.738L420.116 275.816C420.083 275.9 420.002 275.956 419.912 275.956H378.75C378.655 275.956 378.57 275.895 378.541 275.804L378.75 275.737C378.541 275.804 378.541 275.803 378.541 275.803L378.537 275.792L378.526 275.756C378.516 275.724 378.501 275.676 378.481 275.613C378.442 275.488 378.383 275.301 378.308 275.055C378.158 274.564 377.939 273.839 377.665 272.901C377.118 271.025 376.35 268.3 375.472 264.898C373.714 258.095 371.51 248.588 369.723 237.77C366.149 216.142 364.236 189.239 370.918 168.232C370.945 168.147 371.021 168.087 371.11 168.08C383.698 167.126 397.913 167.127 408.979 167.365C414.513 167.484 419.26 167.663 422.624 167.812C424.306 167.886 425.642 167.953 426.558 168.002C427.016 168.026 427.369 168.045 427.607 168.059C427.726 168.066 427.817 168.071 427.878 168.074L427.97 168.08C427.97 168.08 427.97 168.08 427.957 168.299ZM427.957 168.299L427.97 168.08C428.039 168.084 428.103 168.121 428.14 168.179L427.957 168.299Z" fill="#0E101A"/>
<path d="M344.022 80.5692C344.022 80.5692 338.876 71.0121 341.926 65.4874C344.976 59.9627 348.023 66.9033 348.023 69.4518C348.023 72.0004 348.66 71.6606 349.611 70.7091C350.563 69.7577 351.327 71.7229 351.2 72.2949C351.073 72.8669 349.611 77.5647 349.677 79.4082C349.742 81.2516 344.022 80.5692 344.022 80.5692Z" fill="white"/>
<path fill-rule="evenodd" clip-rule="evenodd" d="M344.218 63.8532C343.719 63.9136 343.052 64.3548 342.31 65.6995C340.877 68.2946 341.349 71.909 342.251 74.9766C342.696 76.4933 343.237 77.8421 343.666 78.8123C343.881 79.297 344.067 79.6862 344.199 79.9534C344.239 80.0325 344.273 80.101 344.302 80.158C344.304 80.1582 344.307 80.1584 344.309 80.1587C344.462 80.1734 344.681 80.1925 344.943 80.2097C345.47 80.2443 346.166 80.2711 346.855 80.2421C347.554 80.2127 348.207 80.1272 348.668 79.9563C349.146 79.7793 349.244 79.588 349.238 79.4238C349.22 78.9131 349.307 78.2349 349.438 77.5206C349.57 76.7987 349.753 76.0104 349.941 75.2675C350.129 74.5239 350.323 73.8213 350.477 73.2704C350.514 73.138 350.548 73.0157 350.58 72.9044C350.681 72.5425 350.75 72.2974 350.772 72.1997C350.78 72.1637 350.78 72.0187 350.716 71.7883C350.658 71.5749 350.562 71.3497 350.445 71.1731C350.32 70.9855 350.213 70.9128 350.156 70.8961C350.156 70.896 350.155 70.8959 350.155 70.8957C350.14 70.8909 350.072 70.869 349.921 71.0193C349.682 71.2589 349.436 71.4873 349.201 71.6402C348.987 71.779 348.648 71.9447 348.293 71.7985C347.944 71.6547 347.791 71.2941 347.711 70.9595C347.624 70.5974 347.584 70.1 347.584 69.452C347.584 68.8842 347.41 68.0257 347.087 67.1295C346.764 66.2363 346.31 65.3533 345.782 64.7241C345.244 64.0819 344.71 63.7937 344.218 63.8532ZM344.022 80.5694C343.635 80.7772 343.635 80.7771 343.635 80.7769L343.634 80.7747L343.631 80.7688L343.619 80.7466C343.609 80.7273 343.594 80.6991 343.575 80.6623C343.537 80.5887 343.482 80.481 343.413 80.3425C343.276 80.0654 343.085 79.6648 342.864 79.1672C342.424 78.1729 341.869 76.7871 341.409 75.2239C340.501 72.1318 339.925 68.2053 341.542 65.2757C342.325 63.8581 343.183 63.0952 344.113 62.9827C345.05 62.8693 345.849 63.4397 346.454 64.1607C347.069 64.8945 347.567 65.8793 347.911 66.8316C348.254 67.7808 348.461 68.7455 348.461 69.452C348.461 70.0783 348.501 70.4941 348.564 70.7554C348.588 70.8586 348.612 70.9214 348.63 70.9582C348.653 70.9475 348.683 70.9308 348.723 70.9051C348.875 70.8063 349.065 70.6355 349.301 70.3993C349.621 70.0799 350.006 69.9389 350.402 70.0544C350.752 70.1564 351.006 70.4325 351.176 70.6887C351.353 70.956 351.483 71.2699 351.562 71.5561C351.636 71.8253 351.684 72.1404 351.628 72.3904C351.6 72.5138 351.521 72.7975 351.416 73.1705C351.386 73.276 351.354 73.3886 351.321 73.5068C351.168 74.0553 350.976 74.7496 350.791 75.4823C350.606 76.2159 350.428 76.9834 350.3 77.6787C350.172 78.3816 350.1 78.982 350.115 79.3929C350.141 80.1505 349.549 80.5652 348.973 80.7786C348.38 80.9983 347.615 81.0878 346.892 81.1182C346.159 81.149 345.429 81.1205 344.886 81.0847C344.613 81.0668 344.385 81.0469 344.225 81.0315C344.145 81.0238 344.082 81.0172 344.038 81.0125C344.017 81.0101 344 81.0082 343.988 81.0069L343.975 81.0053L343.971 81.0049L343.97 81.0048C343.97 81.0048 343.97 81.0047 344.022 80.5694ZM344.022 80.5694L343.97 81.0047C343.828 80.9878 343.703 80.9026 343.635 80.7769L344.022 80.5694Z" fill="#0E101A"/>
<path d="M342.943 80.7478C342.943 80.7478 350.946 126.984 370.003 124.317C389.061 121.649 394.903 105.438 394.903 105.438L390.179 86.7681C390.179 86.7681 380.755 110.271 365.509 98.0695C350.263 85.8676 350.671 77.497 350.671 77.497C350.671 77.497 344.322 76.2284 342.943 80.7478Z" fill="#B8D2F0"/>
<path fill-rule="evenodd" clip-rule="evenodd" d="M350.757 77.067C350.757 77.067 350.757 77.067 350.671 77.497L350.757 77.067C350.969 77.1094 351.119 77.3006 351.109 77.5168C351.109 77.5168 351.109 77.5167 351.109 77.5168C351.109 77.5168 351.109 77.5172 351.109 77.5173L351.109 77.5179L351.109 77.5296C351.109 77.5415 351.108 77.5613 351.109 77.5889C351.109 77.6443 351.112 77.7311 351.121 77.8483C351.138 78.0825 351.179 78.4385 351.275 78.9075C351.467 79.845 351.88 81.2365 352.765 83.0119C354.536 86.5623 358.2 91.6578 365.783 97.7271C369.519 100.717 372.845 101.482 375.726 101.018C378.626 100.551 381.153 98.8271 383.248 96.6876C385.342 94.5506 386.974 92.0306 388.086 90.0363C388.64 89.0409 389.063 88.1802 389.347 87.5694C389.489 87.2641 389.596 87.0214 389.667 86.8558C389.703 86.773 389.729 86.7095 389.747 86.6671C389.756 86.6459 389.762 86.6299 389.766 86.6195L389.771 86.608L389.772 86.6054L389.772 86.6049C389.772 86.6049 389.772 86.6049 389.772 86.6049C389.843 86.4286 390.019 86.3179 390.209 86.3306C390.398 86.3432 390.558 86.4764 390.604 86.6605L395.328 105.33C395.349 105.415 395.345 105.504 395.315 105.586L394.903 105.438C395.315 105.586 395.315 105.586 395.315 105.587L395.315 105.588L395.313 105.591L395.31 105.601C395.308 105.606 395.306 105.611 395.304 105.617C395.301 105.623 395.299 105.631 395.295 105.639C395.283 105.672 395.264 105.72 395.24 105.782C395.191 105.906 395.117 106.086 395.016 106.316C394.815 106.774 394.507 107.429 394.078 108.221C393.22 109.805 391.876 111.943 389.929 114.166C386.033 118.614 379.718 123.4 370.064 124.751C365.093 125.447 360.884 122.939 357.404 118.921C353.925 114.906 351.117 109.323 348.918 103.692C346.717 98.0549 345.116 92.3385 344.066 88.0345C343.54 85.8817 343.152 84.0804 342.895 82.8167C342.766 82.1848 342.671 81.6871 342.607 81.3471C342.575 81.177 342.551 81.0464 342.535 80.958C342.527 80.9138 342.521 80.8802 342.517 80.8575L342.513 80.8317L342.511 80.8233C342.511 80.8228 342.511 80.8226 342.943 80.7478L342.511 80.8226C342.5 80.7549 342.504 80.6855 342.524 80.6198C343.286 78.1212 345.431 77.2514 347.263 76.9934C348.184 76.8638 349.055 76.8824 349.692 76.9323C350.011 76.9573 350.275 76.9904 350.459 77.0175C350.552 77.031 350.624 77.0431 350.675 77.0519C350.7 77.0564 350.72 77.06 350.734 77.0626L350.75 77.0656L350.755 77.0666L350.756 77.0669L350.757 77.067ZM343.394 80.7775C343.395 80.7855 343.397 80.7939 343.398 80.8027C343.414 80.8891 343.437 81.0178 343.469 81.1857C343.532 81.5216 343.627 82.0148 343.754 82.6419C344.009 83.8963 344.395 85.6864 344.917 87.8266C345.963 92.1085 347.553 97.7846 349.735 103.373C351.92 108.968 354.685 114.443 358.067 118.347C361.447 122.249 365.385 124.52 369.943 123.882C379.346 122.566 385.481 117.913 389.27 113.588C391.165 111.424 392.473 109.342 393.307 107.804C393.723 107.034 394.02 106.402 394.213 105.963C394.309 105.744 394.379 105.573 394.425 105.458C394.432 105.441 394.438 105.426 394.444 105.411L390.065 88.1039C389.777 88.7161 389.37 89.5323 388.852 90.4632C387.72 92.4945 386.043 95.0877 383.875 97.3013C381.709 99.5123 379.021 101.376 375.866 101.884C372.692 102.395 369.123 101.523 365.235 98.4117C357.573 92.2792 353.818 87.0885 351.981 83.4031C351.062 81.5606 350.624 80.0969 350.416 79.0836C350.312 78.5771 350.266 78.1838 350.246 77.9127C350.245 77.899 350.244 77.8856 350.243 77.8725C350.083 77.8506 349.872 77.8259 349.623 77.8065C349.027 77.7598 348.224 77.7437 347.385 77.8618C345.726 78.0954 344.036 78.8304 343.394 80.7775Z" fill="#0E101A"/>
<path d="M381.585 104.828C371.02 128.728 356.411 168.768 373.033 176.68C397.043 188.109 438.967 182.777 435.155 170.584C431.344 158.39 421.053 86.7646 421.053 86.7646C421.053 86.7646 394.115 78.8358 390.188 86.7646L381.585 104.828Z" fill="#B8D2F0"/>
<path fill-rule="evenodd" clip-rule="evenodd" d="M421.177 86.3439C421.177 86.3439 421.177 86.344 421.053 86.7646C421.487 86.7022 421.487 86.7025 421.487 86.703L421.517 86.9079C421.537 87.0437 421.566 87.2455 421.604 87.5092C421.68 88.0366 421.792 88.8119 421.937 89.8029C422.226 91.7849 422.642 94.63 423.154 98.0823C424.179 104.987 425.584 114.32 427.108 124.034C428.632 133.748 430.276 143.841 431.776 152.266C433.278 160.704 434.631 167.436 435.574 170.453C436.091 172.108 435.828 173.659 434.934 175.052C434.05 176.429 432.561 177.636 430.641 178.673C426.801 180.748 421.104 182.209 414.575 182.926C401.515 184.361 384.944 182.836 372.845 177.076C368.51 175.013 366.253 170.865 365.438 165.543C364.623 160.228 365.233 153.674 366.684 146.661C369.589 132.627 375.898 116.608 381.184 104.651C381.185 104.649 381.186 104.647 381.187 104.644C381.187 104.643 381.188 104.641 381.189 104.64L389.792 86.5761L389.795 86.57C390.883 84.3736 393.513 83.3589 396.615 82.9843C399.748 82.606 403.527 82.8595 407.153 83.3569C410.785 83.8551 414.29 84.6018 416.885 85.2232C418.183 85.5341 419.255 85.8139 420.003 86.0162C420.377 86.1173 420.669 86.1991 420.869 86.2556C420.969 86.2839 421.046 86.3059 421.098 86.3209L421.157 86.338L421.177 86.3439ZM421.053 86.7646L421.487 86.7022C421.463 86.5324 421.342 86.3924 421.177 86.344L421.053 86.7646ZM420.66 87.1077C420.65 87.105 420.64 87.1022 420.63 87.0993C420.434 87.0436 420.144 86.9628 419.774 86.8626C419.033 86.6622 417.969 86.3846 416.681 86.076C414.102 85.4585 410.627 84.7186 407.034 84.2257C403.434 83.732 399.742 83.4899 396.72 83.8549C393.668 84.2234 391.459 85.1901 390.582 86.9563L381.983 105.011C376.704 116.953 370.428 132.901 367.543 146.839C366.1 153.811 365.513 160.246 366.304 165.41C367.095 170.568 369.245 174.392 373.221 176.284C385.132 181.954 401.528 183.477 414.479 182.054C420.956 181.343 426.526 179.899 430.225 177.902C432.074 176.903 433.423 175.783 434.196 174.578C434.959 173.391 435.172 172.108 434.737 170.714C433.774 167.634 432.412 160.841 430.912 152.42C429.411 143.986 427.767 133.886 426.242 124.17C424.717 114.453 423.311 105.117 422.287 98.2109C421.775 94.7578 421.358 91.9119 421.069 89.9293C420.925 88.938 420.812 88.1624 420.736 87.6347C420.704 87.4155 420.679 87.2391 420.66 87.1077Z" fill="#0E101A"/>
<path d="M353.706 112.848L471.636 124.427L468.586 203.732L363.62 176.174L353.706 112.848Z" fill="#0E101A"/>
<path fill-rule="evenodd" clip-rule="evenodd" d="M353.547 112.698C353.594 112.648 353.66 112.623 353.728 112.63L471.658 124.209C471.773 124.22 471.86 124.32 471.856 124.435L468.806 203.741C468.803 203.807 468.771 203.869 468.717 203.908C468.664 203.948 468.595 203.961 468.531 203.944L363.565 176.386C363.48 176.364 363.417 176.294 363.404 176.208L353.49 112.882C353.479 112.815 353.501 112.747 353.547 112.698ZM353.967 113.094L363.815 175.998L468.378 203.451L471.409 124.625L353.967 113.094Z" fill="#0E101A"/>
<path d="M345.259 103.325L327.317 176.808L461.111 207.674L478.35 134.805L345.259 103.325Z" fill="white"/>
<path fill-rule="evenodd" clip-rule="evenodd" d="M344.833 103.221C344.89 102.987 345.126 102.843 345.36 102.899L478.451 134.379C478.564 134.406 478.662 134.476 478.723 134.575C478.784 134.674 478.804 134.793 478.777 134.906L461.537 207.775C461.482 208.01 461.247 208.156 461.012 208.101L327.219 177.236C327.105 177.209 327.006 177.138 326.944 177.038C326.883 176.939 326.864 176.818 326.891 176.704L344.833 103.221ZM345.582 103.852L327.849 176.481L460.784 207.149L477.823 135.131L345.582 103.852Z" fill="#0E101A"/>
<path d="M377.751 176.174C377.751 176.174 373.305 179.348 369.366 178.841C365.427 178.334 360.347 177.173 360.347 178.895C360.347 180.617 367.208 180.744 367.336 181.761C367.463 182.777 361.106 183.774 357.555 183.783C355.392 186.207 360.769 191.032 366.146 192.048C371.524 193.065 377.456 187.3 378.937 186.951L380.92 185.453L377.751 176.174Z" fill="white"/>
<path fill-rule="evenodd" clip-rule="evenodd" d="M377.885 175.756C378.017 175.799 378.121 175.901 378.165 176.032L381.334 185.312C381.395 185.491 381.335 185.689 381.184 185.803L379.201 187.301C379.153 187.338 379.097 187.364 379.037 187.378C378.926 187.404 378.724 187.498 378.409 187.688C378.106 187.87 377.741 188.113 377.315 188.401C377.238 188.453 377.16 188.506 377.079 188.561C376.276 189.105 375.301 189.766 374.223 190.391C371.869 191.757 368.92 193.019 366.065 192.479C363.29 191.955 360.527 190.454 358.723 188.763C357.822 187.919 357.131 187 356.814 186.099C356.492 185.18 356.554 184.245 357.228 183.491C357.311 183.398 357.429 183.344 357.554 183.344C359.298 183.34 361.749 183.092 363.744 182.719C364.743 182.532 365.608 182.317 366.207 182.094C366.484 181.99 366.681 181.893 366.804 181.81C366.802 181.808 366.799 181.807 366.796 181.805C366.638 181.723 366.396 181.638 366.073 181.549C365.608 181.421 365.04 181.302 364.428 181.175C364.191 181.125 363.948 181.074 363.701 181.021C362.837 180.834 361.939 180.618 361.252 180.331C360.909 180.187 360.588 180.014 360.347 179.796C360.102 179.573 359.908 179.273 359.908 178.895C359.908 178.556 360.04 178.267 360.279 178.052C360.503 177.85 360.797 177.733 361.103 177.662C361.711 177.52 362.526 177.526 363.413 177.595C364.535 177.683 365.871 177.885 367.189 178.085C367.954 178.2 368.714 178.315 369.422 178.406C371.269 178.644 373.274 178.018 374.854 177.299C375.636 176.942 376.3 176.57 376.767 176.287C377.001 176.145 377.185 176.027 377.309 175.944C377.372 175.902 377.419 175.87 377.451 175.848C377.466 175.838 377.478 175.829 377.486 175.824L377.494 175.818L377.496 175.817C377.496 175.817 377.496 175.817 377.75 176.174C378.005 176.531 378.005 176.531 378.005 176.531L378.004 176.532L378.001 176.534L377.99 176.542C377.98 176.548 377.966 176.558 377.949 176.57C377.913 176.595 377.861 176.63 377.794 176.674C377.72 176.723 377.628 176.784 377.519 176.853C377.431 176.909 377.331 176.97 377.221 177.037C376.732 177.333 376.038 177.723 375.217 178.097C373.589 178.838 371.401 179.545 369.31 179.276C368.556 179.179 367.776 179.061 367.003 178.944C365.712 178.748 364.441 178.556 363.345 178.47C362.47 178.401 361.769 178.407 361.302 178.516C361.069 178.57 360.936 178.641 360.866 178.703C360.812 178.752 360.785 178.804 360.785 178.895C360.785 178.947 360.806 179.028 360.936 179.146C361.071 179.268 361.288 179.395 361.59 179.522C362.193 179.774 363.018 179.976 363.886 180.164C364.115 180.213 364.348 180.262 364.579 180.31C365.202 180.44 365.812 180.568 366.306 180.703C366.644 180.796 366.959 180.901 367.201 181.028C367.322 181.091 367.445 181.169 367.546 181.27C367.648 181.372 367.747 181.517 367.77 181.706C367.818 182.085 367.552 182.348 367.358 182.492C367.141 182.652 366.844 182.792 366.514 182.915C365.845 183.165 364.923 183.39 363.905 183.581C361.944 183.947 359.553 184.197 357.766 184.219C357.461 184.652 357.422 185.181 357.642 185.809C357.894 186.526 358.477 187.331 359.322 188.123C361.011 189.706 363.625 191.126 366.228 191.618C368.75 192.094 371.456 190.982 373.783 189.632C374.833 189.023 375.784 188.379 376.589 187.834C376.669 187.78 376.747 187.726 376.824 187.674C377.247 187.388 377.631 187.132 377.957 186.936C378.232 186.771 378.502 186.626 378.739 186.551L380.402 185.295L377.519 176.853M377.885 175.756C377.753 175.714 377.608 175.737 377.496 175.817ZM366.917 181.714C366.917 181.714 366.916 181.716 366.913 181.72C366.915 181.716 366.917 181.714 366.917 181.714Z" fill="#0E101A"/>
<path d="M421.046 86.7681C421.046 86.7681 440.273 112.14 439.305 135.661C438.517 154.99 379.943 188.954 379.943 188.954C379.943 188.954 375.594 180.878 375.594 176.307C375.594 171.737 412.689 155.505 416.756 137.98C420.494 121.856 410.5 110.775 410.5 110.775L421.046 86.7681Z" fill="#B8D2F0"/>
<path fill-rule="evenodd" clip-rule="evenodd" d="M421.394 86.5032L421.045 86.768C421.394 86.5032 421.394 86.5034 421.395 86.5037L421.395 86.5047L421.398 86.5085L421.409 86.523C421.419 86.5357 421.433 86.5546 421.451 86.5794C421.488 86.629 421.543 86.7026 421.614 86.7993C421.756 86.9928 421.963 87.2788 422.227 87.6508C422.754 88.3947 423.504 89.4824 424.401 90.8608C426.195 93.6171 428.577 97.5377 430.929 102.197C435.626 111.502 440.231 123.806 439.742 135.679C439.639 138.198 438.599 140.916 436.902 143.727C435.203 146.542 432.828 149.479 430.014 152.444C424.387 158.373 416.968 164.448 409.589 169.908C402.206 175.37 394.851 180.225 389.341 183.715C386.586 185.46 384.293 186.864 382.687 187.832C381.884 188.316 381.253 188.691 380.823 188.945C380.608 189.072 380.443 189.169 380.332 189.234C380.276 189.267 380.234 189.291 380.205 189.308L380.165 189.331L380.163 189.332C380.162 189.333 380.162 189.333 379.942 188.954C379.556 189.161 379.556 189.161 379.556 189.161L379.553 189.155L379.543 189.137L379.527 189.107C379.521 189.095 379.514 189.082 379.506 189.067C379.473 189.005 379.426 188.915 379.366 188.799C379.246 188.567 379.075 188.231 378.869 187.814C378.459 186.98 377.911 185.819 377.363 184.514C376.277 181.926 375.154 178.69 375.154 176.307C375.154 175.882 375.364 175.458 375.656 175.058C375.955 174.648 376.38 174.207 376.902 173.74C377.947 172.805 379.431 171.714 381.204 170.494C382.722 169.449 384.463 168.3 386.338 167.063C386.656 166.854 386.978 166.641 387.303 166.427C389.547 164.945 391.957 163.344 394.398 161.642C399.282 158.237 404.275 154.44 408.297 150.41C412.326 146.373 415.339 142.143 416.328 137.881C418.171 129.93 416.629 123.225 414.625 118.502C413.623 116.141 412.505 114.277 411.64 113.005C411.207 112.37 410.838 111.883 410.578 111.556C410.448 111.392 410.346 111.269 410.277 111.188C410.242 111.147 410.215 111.116 410.198 111.097L410.179 111.075L410.175 111.07L410.174 111.069C410.058 110.941 410.029 110.757 410.098 110.599L420.643 86.5917C420.706 86.4494 420.839 86.3508 420.993 86.3326C421.148 86.3144 421.3 86.3793 421.394 86.5032ZM411.012 110.699C411.08 110.781 411.165 110.884 411.265 111.01C411.537 111.352 411.919 111.857 412.365 112.512C413.256 113.822 414.404 115.736 415.432 118.16C417.49 123.009 419.076 129.906 417.182 138.079C416.138 142.579 412.988 146.951 408.918 151.029C404.841 155.114 399.798 158.946 394.9 162.361C392.449 164.07 390.031 165.676 387.786 167.158C387.46 167.374 387.137 167.587 386.819 167.797C384.944 169.033 383.211 170.176 381.701 171.216C379.932 172.434 378.487 173.498 377.487 174.393C376.987 174.842 376.612 175.235 376.365 175.574C376.111 175.923 376.031 176.161 376.031 176.307C376.031 178.494 377.083 181.582 378.172 184.175C378.711 185.46 379.251 186.604 379.656 187.427C379.843 187.807 380.002 188.119 380.117 188.343C380.193 188.298 380.28 188.247 380.377 188.19C380.805 187.937 381.434 187.563 382.234 187.081C383.835 186.116 386.123 184.715 388.872 182.974C394.37 179.492 401.707 174.648 409.067 169.203C416.429 163.756 423.802 157.716 429.378 151.84C432.167 148.903 434.497 146.016 436.152 143.274C437.809 140.527 438.771 137.956 438.866 135.643C439.345 123.995 434.82 111.852 430.146 102.592C427.812 97.9676 425.447 94.0751 423.666 91.3391C422.776 89.9713 422.032 88.8931 421.511 88.1576C421.371 87.9597 421.247 87.7867 421.141 87.6395L411.012 110.699ZM379.942 188.954L379.556 189.161C379.612 189.266 379.709 189.343 379.823 189.375C379.937 189.408 380.06 189.392 380.162 189.333L379.942 188.954Z" fill="#0E101A"/>
<path d="M391.725 89.8151C391.725 89.8151 405.912 93.4511 408.982 90.4919C412.051 87.5328 413.512 84.9191 413.512 84.9191C413.512 84.9191 407.481 81.3058 407.099 74.8297C406.716 68.3535 411.038 48.4153 397.188 47.2713C383.338 46.1273 380.039 75.968 385.365 77.4971C390.692 79.0263 395.792 81.6881 391.725 89.8151Z" fill="white"/>
<path fill-rule="evenodd" clip-rule="evenodd" d="M388.409 51.0186C390.645 48.282 393.577 46.5327 397.224 46.8339C400.808 47.13 403.254 48.6525 404.88 50.8911C406.492 53.1098 407.276 55.9976 407.629 58.9992C407.983 62.0055 407.909 65.1708 407.774 67.9731C407.74 68.6854 407.702 69.3715 407.666 70.0249C407.558 71.9648 407.466 73.6156 407.536 74.8034C407.719 77.9065 409.257 80.338 410.773 82.0077C411.53 82.8409 412.276 83.4776 412.832 83.9054C413.109 84.1191 413.339 84.2801 413.497 84.3869C413.577 84.4403 413.638 84.4801 413.679 84.5061C413.7 84.5191 413.715 84.5286 413.725 84.5347L413.736 84.5412L413.738 84.5425C413.941 84.6644 414.011 84.9257 413.895 85.1326L413.512 84.9186C413.895 85.1326 413.895 85.1325 413.895 85.1326L413.895 85.1337L413.893 85.1357L413.889 85.1426L413.875 85.1677C413.863 85.1892 413.845 85.2205 413.82 85.2608C413.772 85.3416 413.701 85.4589 413.606 85.6083C413.417 85.907 413.133 86.3342 412.752 86.8543C411.991 87.8942 410.842 89.3072 409.286 90.8071C408.828 91.2481 408.192 91.5414 407.473 91.7353C406.75 91.9303 405.909 92.0337 405.009 92.0721C403.21 92.149 401.119 91.9682 399.143 91.6971C397.163 91.4256 395.283 91.0613 393.898 90.7653C393.205 90.6172 392.636 90.486 392.239 90.3917C392.041 90.3445 391.886 90.3066 391.78 90.2804C391.727 90.2673 391.686 90.2571 391.659 90.2502L391.627 90.2422L391.617 90.2395C391.616 90.2394 391.616 90.2394 391.725 89.8147L391.617 90.2395C391.488 90.2065 391.381 90.1172 391.326 89.9966C391.271 89.876 391.274 89.737 391.333 89.6185C393.325 85.637 393.011 83.136 391.719 81.4479C390.382 79.7005 387.907 78.6827 385.244 77.9181C384.384 77.6711 383.78 76.8815 383.37 75.8779C382.953 74.8592 382.694 73.5224 382.58 72.0005C382.353 68.9523 382.705 65.0672 383.66 61.2743C384.614 57.4844 386.18 53.7466 388.409 51.0186ZM392.356 89.518C392.384 89.5246 392.412 89.5315 392.442 89.5386C392.833 89.6315 393.396 89.7613 394.082 89.9078C395.453 90.201 397.311 90.5608 399.262 90.8284C401.216 91.0964 403.248 91.2697 404.972 91.196C405.833 91.1592 406.605 91.0612 407.245 90.8886C407.889 90.715 408.367 90.4746 408.677 90.1758C410.191 88.7166 411.308 87.3431 412.044 86.3364C412.413 85.8332 412.686 85.422 412.866 85.1382C412.885 85.1088 412.902 85.0808 412.919 85.0542C412.755 84.9417 412.543 84.7901 412.297 84.6003C411.709 84.1482 410.923 83.4769 410.124 82.5972C408.529 80.8412 406.86 78.228 406.661 74.855C406.588 73.6126 406.684 71.8854 406.793 69.9263C406.828 69.2832 406.865 68.615 406.898 67.9308C407.033 65.1376 407.103 62.0325 406.758 59.1017C406.413 56.1663 405.656 53.4503 404.171 51.4065C402.7 49.3825 400.492 47.9837 397.151 47.7078C393.873 47.4371 391.199 48.9888 389.088 51.5734C386.969 54.1665 385.446 57.77 384.51 61.4884C383.575 65.2038 383.235 68.9941 383.455 71.9353C383.565 73.4082 383.813 74.6446 384.182 75.546C384.556 76.4626 385.015 76.9399 385.486 77.0753C388.149 77.8398 390.887 78.9175 392.416 80.915C393.926 82.8893 394.173 85.6345 392.356 89.518Z" fill="#0E101A"/>
<path d="M382.955 48.7833C382.955 48.7833 384.399 56.9131 391.167 56.7432C397.934 56.5733 398.509 66.3938 398.226 72.4905C397.943 78.5871 404.926 86.6207 414.987 85.2332C420.809 85.0265 422.672 90.6135 426.909 89.5997C431.145 88.586 433.345 76.7295 422.661 73.6826C411.977 70.6357 407.418 68.4326 409.788 63.6923C412.158 58.952 411.272 50.6664 403.669 50.1453C401.488 43.5418 392.849 46.2489 390.309 48.7889C386.095 46.5944 381.635 45.1927 382.955 48.7833Z" fill="#0E101A"/>
<path fill-rule="evenodd" clip-rule="evenodd" d="M403.831 49.9371C405.704 50.0911 407.182 50.7137 408.307 51.6459C409.46 52.6012 410.23 53.872 410.678 55.2691C411.573 58.0568 411.194 61.3724 409.985 63.7898C409.408 64.9446 409.268 65.9132 409.509 66.7643C409.751 67.6182 410.389 68.3959 411.456 69.1423C413.6 70.6417 417.373 71.9458 422.723 73.4713C428.158 75.0214 430.338 78.8287 430.6 82.387C430.731 84.1594 430.386 85.8707 429.733 87.2091C429.083 88.5413 428.109 89.5376 426.961 89.8124C424.786 90.3329 423.203 89.1883 421.546 87.9903C421.502 87.959 421.459 87.9277 421.416 87.8963C419.696 86.6545 417.831 85.3547 415.007 85.4514C409.914 86.1505 405.594 84.4665 402.585 81.8329C399.579 79.203 397.863 75.6101 398.009 72.4798C398.15 69.4373 398.075 65.4884 397.132 62.3291C396.66 60.7502 395.977 59.3864 395.012 58.4299C394.053 57.4796 392.805 56.9209 391.174 56.9619C387.681 57.0496 385.566 54.9888 384.336 52.9393C383.721 51.9149 383.323 50.8871 383.078 50.1167C382.956 49.7311 382.872 49.4089 382.818 49.1824C382.791 49.0691 382.772 48.9797 382.759 48.9182C382.753 48.8874 382.748 48.8636 382.745 48.8472L382.744 48.8409C382.415 47.9388 382.409 47.2496 382.791 46.8155C383.168 46.3875 383.837 46.3095 384.584 46.3985C386.07 46.5755 388.206 47.4557 390.271 48.5212C391.63 47.2457 394.395 45.9857 397.111 45.819C398.514 45.7328 399.923 45.937 401.125 46.5977C402.3 47.2429 403.263 48.3148 403.831 49.9371ZM383.172 48.7444L383.172 48.7444L383.172 48.7452L383.173 48.7489L383.176 48.7649C383.178 48.7793 383.183 48.8012 383.189 48.8299C383.2 48.8874 383.219 48.9724 383.245 49.0811C383.296 49.2985 383.378 49.6102 383.496 49.9841C383.734 50.7327 384.12 51.7268 384.712 52.7137C385.896 54.6866 387.887 56.6058 391.163 56.5236C392.915 56.4796 394.277 57.0847 395.32 58.1185C396.357 59.146 397.069 60.5866 397.552 62.2036C398.517 65.4362 398.588 69.4459 398.446 72.5001C398.309 75.4665 399.943 78.9387 402.873 81.5029C405.797 84.0615 409.996 85.6999 414.959 85.0155C414.966 85.0145 414.973 85.0139 414.981 85.0136C417.973 84.9074 419.948 86.2959 421.672 87.5409L421.743 87.5923C423.453 88.8271 424.882 89.8591 426.859 89.386C427.829 89.1539 428.719 88.288 429.339 87.0168C429.956 85.7518 430.288 84.1185 430.163 82.4192C429.913 79.0341 427.851 75.3898 422.602 73.8929C417.267 72.3715 413.419 71.0505 411.205 69.5016C410.093 68.7238 409.368 67.8716 409.088 66.8839C408.807 65.8935 408.986 64.8092 409.593 63.5937C410.755 61.2709 411.118 58.0735 410.261 55.4031C409.834 54.0711 409.105 52.8765 408.027 51.9835C406.951 51.0916 405.515 50.491 403.655 50.3635C403.566 50.3574 403.49 50.2982 403.462 50.2136C402.933 48.612 402.019 47.5888 400.914 46.9819C399.805 46.3724 398.485 46.1739 397.138 46.2566C394.434 46.4226 391.692 47.7163 390.465 48.9434C390.397 49.0111 390.294 49.0271 390.209 48.9829C388.103 47.8863 385.966 47.0046 384.532 46.8338C383.802 46.7469 383.341 46.8545 383.12 47.105C382.908 47.3466 382.837 47.8225 383.162 48.7071C383.166 48.7192 383.17 48.7317 383.172 48.7443C383.172 48.7444 383.172 48.7444 383.172 48.7444C383.172 48.7444 383.172 48.7444 383.172 48.7444Z" fill="#0E101A"/>
<path d="M385.722 340.873L368.477 358.922C368.477 358.922 372.203 359.301 377.031 359.301C382.259 357.886 387.701 353.536 390.691 350.413L392.996 359.301H395.791C395.791 359.301 395.035 343.809 393.699 342.028C392.362 340.247 389.502 342.506 385.722 340.873Z" fill="#0E101A"/>
<path fill-rule="evenodd" clip-rule="evenodd" d="M385.563 340.721C385.626 340.655 385.724 340.635 385.808 340.671C387.642 341.464 389.252 341.315 390.604 341.177C390.626 341.175 390.649 341.172 390.671 341.17C391.314 341.104 391.92 341.043 392.447 341.108C393.007 341.178 393.496 341.393 393.874 341.896C394.07 342.159 394.237 342.636 394.385 343.228C394.536 343.832 394.676 344.591 394.806 345.445C395.066 347.155 395.286 349.264 395.464 351.314C395.642 353.364 395.779 355.358 395.871 356.839C395.917 357.58 395.951 358.193 395.975 358.62C395.986 358.834 395.995 359.002 396.001 359.116L396.008 359.246L396.01 359.291C396.01 359.291 396.01 359.291 395.791 359.301L396.01 359.291C396.013 359.35 395.991 359.409 395.95 359.453C395.908 359.496 395.851 359.521 395.791 359.521H392.996C392.896 359.521 392.809 359.453 392.784 359.356L390.577 350.845C387.524 353.956 382.216 358.124 377.088 359.513C377.069 359.518 377.05 359.521 377.031 359.521C374.611 359.521 372.468 359.426 370.929 359.33C370.16 359.283 369.542 359.235 369.115 359.2C368.902 359.182 368.737 359.167 368.625 359.157C368.569 359.151 368.527 359.147 368.498 359.144L368.465 359.141L368.454 359.14C368.454 359.14 368.454 359.14 368.476 358.922L368.454 359.14C368.371 359.132 368.299 359.076 368.27 358.998C368.241 358.919 368.26 358.831 368.318 358.771L385.563 340.721ZM368.948 358.745C369.01 358.751 369.078 358.757 369.152 358.763C369.575 358.798 370.191 358.846 370.956 358.893C372.482 358.987 374.605 359.081 377.001 359.082C382.164 357.674 387.559 353.367 390.533 350.261C390.588 350.204 390.669 350.18 390.746 350.201C390.823 350.221 390.883 350.281 390.903 350.358L393.166 359.082H395.56C395.554 358.972 395.547 358.825 395.537 358.644C395.514 358.218 395.479 357.606 395.433 356.866C395.341 355.387 395.205 353.397 395.027 351.352C394.849 349.305 394.63 347.207 394.372 345.511C394.243 344.663 394.105 343.919 393.959 343.335C393.81 342.738 393.66 342.342 393.523 342.159C393.232 341.772 392.863 341.602 392.392 341.543C391.916 341.484 391.354 341.541 390.683 341.61L390.648 341.613C389.324 341.748 387.663 341.907 385.775 341.133L368.948 358.745Z" fill="#0E101A"/>
<path d="M420.26 342.73C420.26 342.73 414.569 345.42 412.315 342.73C408.455 349.948 400.07 353.842 399.306 357.228C398.884 358.497 399.306 359.301 399.306 359.301L407.014 358.837C407.014 358.837 417.007 355.195 419.21 350.962C419.467 353.788 420.006 356.582 420.818 359.301H424.46C424.46 359.301 424.528 344.319 420.26 342.73Z" fill="#0E101A"/>
<path fill-rule="evenodd" clip-rule="evenodd" d="M412.292 342.512C412.364 342.504 412.435 342.533 412.482 342.589C413.002 343.209 413.725 343.527 414.539 343.648C415.355 343.769 416.251 343.689 417.09 343.524C417.927 343.358 418.698 343.11 419.259 342.903C419.54 342.799 419.768 342.706 419.925 342.639C420.003 342.605 420.064 342.578 420.105 342.56C420.126 342.55 420.141 342.543 420.152 342.539L420.163 342.533L420.166 342.532L420.166 342.532C420.22 342.507 420.281 342.504 420.336 342.525C420.923 342.743 421.421 343.186 421.843 343.77C422.266 344.353 422.621 345.089 422.922 345.914C423.524 347.564 423.918 349.604 424.177 351.583C424.437 353.563 424.562 355.493 424.622 356.926C424.653 357.643 424.667 358.236 424.673 358.651C424.676 358.858 424.678 359.021 424.678 359.131C424.679 359.187 424.679 359.229 424.679 359.258L424.679 359.291L424.679 359.299L424.679 359.302C424.679 359.302 424.679 359.302 424.459 359.301L424.679 359.302C424.678 359.423 424.58 359.52 424.459 359.52H420.818C420.721 359.52 420.635 359.457 420.608 359.364C419.854 356.842 419.335 354.257 419.056 351.64C418.448 352.53 417.541 353.376 416.506 354.153C415.246 355.1 413.779 355.959 412.386 356.681C410.992 357.405 409.669 357.995 408.694 358.404C408.206 358.608 407.805 358.768 407.526 358.876C407.387 358.931 407.277 358.972 407.203 359C407.166 359.014 407.137 359.025 407.118 359.032L407.096 359.04L407.089 359.043C407.089 359.043 407.088 359.043 407.013 358.837L407.088 359.043C407.068 359.05 407.047 359.054 407.026 359.056L399.318 359.52C399.232 359.525 399.151 359.479 399.111 359.403L399.305 359.301C399.111 359.403 399.111 359.403 399.111 359.403L399.111 359.403L399.111 359.402L399.11 359.401L399.108 359.397L399.103 359.387C399.099 359.378 399.094 359.367 399.087 359.352C399.074 359.323 399.057 359.281 399.039 359.227C399.002 359.121 398.959 358.967 398.93 358.772C398.873 358.384 398.874 357.834 399.094 357.169C399.303 356.26 400.01 355.347 400.963 354.394C401.752 353.605 402.735 352.764 403.799 351.855C404.031 351.657 404.267 351.455 404.506 351.25C407.18 348.951 410.212 346.196 412.121 342.627C412.155 342.562 412.219 342.519 412.292 342.512ZM399.449 359.073L406.968 358.62C406.986 358.613 407.013 358.603 407.049 358.59C407.122 358.562 407.229 358.521 407.367 358.468C407.643 358.36 408.041 358.202 408.524 358C409.492 357.594 410.804 357.009 412.184 356.292C413.565 355.576 415.009 354.73 416.243 353.803C417.48 352.873 418.487 351.876 419.015 350.861C419.06 350.774 419.156 350.728 419.252 350.747C419.347 350.765 419.419 350.845 419.428 350.942C419.679 353.7 420.199 356.426 420.981 359.082H424.24C424.239 358.976 424.238 358.833 424.235 358.658C424.228 358.247 424.214 357.657 424.184 356.945C424.124 355.519 424 353.603 423.743 351.64C423.485 349.674 423.096 347.67 422.51 346.065C422.218 345.262 421.879 344.566 421.488 344.027C421.12 343.518 420.713 343.158 420.266 342.968C420.224 342.987 420.167 343.012 420.097 343.042C419.934 343.111 419.7 343.207 419.411 343.314C418.836 343.527 418.042 343.783 417.175 343.954C416.309 344.125 415.359 344.213 414.474 344.082C413.688 343.965 412.943 343.673 412.361 343.103C410.404 346.62 407.4 349.34 404.792 351.582C404.55 351.79 404.312 351.994 404.078 352.193C403.015 353.102 402.048 353.928 401.273 354.704C400.321 355.656 399.695 356.496 399.519 357.277C399.517 357.284 399.515 357.291 399.513 357.298C399.314 357.897 399.316 358.38 399.364 358.709C399.387 358.866 399.421 358.989 399.449 359.073Z" fill="#0E101A"/>
<path d="M284.742 309.15C284.742 309.15 290.472 279.582 327.318 293.646C318.106 310.422 284.742 309.15 284.742 309.15Z" fill="#B8D2F0"/>
<path fill-rule="evenodd" clip-rule="evenodd" d="M285.291 308.725C285.522 308.729 285.826 308.732 286.195 308.733C287.119 308.735 288.452 308.719 290.08 308.648C293.338 308.506 297.775 308.143 302.495 307.258C307.217 306.373 312.208 304.969 316.581 302.755C320.797 300.62 324.416 297.744 326.684 293.875C317.75 290.532 310.711 289.801 305.182 290.569C299.559 291.35 295.47 293.684 292.512 296.444C289.549 299.209 287.712 302.409 286.615 304.925C286.067 306.181 285.705 307.264 285.481 308.03C285.401 308.304 285.338 308.538 285.291 308.725ZM284.742 309.15L284.725 309.588C284.598 309.583 284.478 309.522 284.399 309.422C284.319 309.322 284.287 309.192 284.312 309.066L284.742 309.15ZM305.061 289.701C310.87 288.894 318.213 289.701 327.475 293.236C327.593 293.281 327.686 293.375 327.73 293.494C327.774 293.613 327.764 293.745 327.703 293.857C325.344 298.153 321.45 301.272 316.977 303.537C312.504 305.802 307.426 307.226 302.656 308.12C297.884 309.014 293.404 309.381 290.118 309.524C288.475 309.596 287.129 309.612 286.193 309.61C285.725 309.609 285.359 309.604 285.11 309.598C284.985 309.596 284.89 309.593 284.825 309.591C284.793 309.59 284.768 309.589 284.751 309.589L284.732 309.588L284.726 309.588C284.726 309.588 284.725 309.588 284.742 309.15C284.312 309.066 284.312 309.066 284.312 309.065L284.312 309.064L284.313 309.059L284.317 309.04C284.32 309.025 284.325 309.002 284.331 308.973C284.344 308.914 284.363 308.829 284.389 308.719C284.442 308.499 284.523 308.182 284.64 307.783C284.873 306.988 285.246 305.87 285.811 304.574C286.94 301.985 288.838 298.673 291.914 295.803C294.994 292.929 299.246 290.508 305.061 289.701Z" fill="#0E101A"/>
<path d="M172.916 261.627C172.916 261.627 134.417 258.964 141.727 225.917C155.542 227 180.535 238.292 172.916 261.627Z" fill="#B8D2F0"/>
<path fill-rule="evenodd" clip-rule="evenodd" d="M141.299 225.823C141.346 225.61 141.543 225.464 141.761 225.481C148.743 226.028 158.536 229.148 165.64 235.092C169.198 238.068 172.095 241.764 173.615 246.214C175.136 250.669 175.264 255.848 173.333 261.764C173.271 261.955 173.087 262.079 172.886 262.065L172.916 261.628C172.886 262.065 172.886 262.065 172.885 262.065L172.878 262.064L172.855 262.063C172.836 262.061 172.807 262.059 172.77 262.056C172.695 262.05 172.585 262.04 172.443 262.026C172.158 261.998 171.743 261.953 171.219 261.883C170.17 261.745 168.682 261.509 166.921 261.123C163.401 260.352 158.773 258.975 154.369 256.549C149.964 254.124 145.761 250.638 143.128 245.643C140.492 240.642 139.452 234.17 141.299 225.823ZM172.606 261.161C174.372 255.548 174.211 250.675 172.785 246.497C171.329 242.233 168.543 238.663 165.078 235.764C158.265 230.065 148.88 227.005 142.074 226.387C140.378 234.38 141.417 240.516 143.904 245.235C146.434 250.033 150.486 253.41 154.792 255.781C159.098 258.152 163.638 259.506 167.109 260.267C168.843 260.647 170.306 260.878 171.334 261.014C171.848 261.082 172.253 261.126 172.529 261.153C172.556 261.156 172.581 261.158 172.606 261.161Z" fill="#0E101A"/>
<path d="M243.914 308.71C243.914 308.71 235.463 277.177 270.144 278.631C270.42 301.753 256.171 306.188 243.914 308.71Z" fill="#B8D2F0"/>
<path fill-rule="evenodd" clip-rule="evenodd" d="M243.915 308.71L243.492 308.824C243.552 309.048 243.776 309.187 244.004 309.14C250.134 307.878 256.861 306.123 262.014 301.729C267.194 297.313 270.723 290.287 270.583 278.626C270.581 278.393 270.396 278.202 270.163 278.193C261.429 277.827 255.354 279.535 251.17 282.354C246.983 285.175 244.736 289.077 243.603 293.004C242.472 296.924 242.447 300.879 242.7 303.843C242.826 305.327 243.023 306.569 243.189 307.44C243.272 307.876 243.347 308.22 243.402 308.456C243.429 308.573 243.451 308.664 243.467 308.727C243.475 308.758 243.481 308.781 243.485 308.798L243.49 308.816L243.491 308.822L243.492 308.823C243.492 308.824 243.492 308.824 243.915 308.71ZM244.051 307.276C244.124 307.662 244.191 307.972 244.242 308.195C250.246 306.941 256.591 305.201 261.445 301.062C266.325 296.901 269.759 290.261 269.71 279.053C261.33 278.763 255.581 280.439 251.66 283.081C247.679 285.763 245.535 289.472 244.446 293.247C243.355 297.028 243.326 300.866 243.573 303.769C243.697 305.218 243.89 306.429 244.051 307.276Z" fill="#0E101A"/>
<path d="M222.391 239.542C222.391 239.542 199.572 205.572 232.084 188.954C250.374 215.763 233.629 235.466 222.391 239.542Z" fill="#B8D2F0"/>
<path fill-rule="evenodd" clip-rule="evenodd" d="M231.884 188.563C232.08 188.463 232.321 188.524 232.445 188.707C241.661 202.215 242.081 213.992 238.72 222.927C235.37 231.833 228.28 237.872 222.54 239.955C222.351 240.023 222.139 239.954 222.026 239.787L222.39 239.542C222.026 239.787 222.026 239.787 222.026 239.786L222.025 239.785L222.021 239.779L222.008 239.76C221.997 239.742 221.98 239.717 221.959 239.684C221.915 239.617 221.852 239.519 221.771 239.39C221.609 239.134 221.378 238.756 221.095 238.271C220.529 237.301 219.758 235.898 218.937 234.162C217.294 230.695 215.441 225.887 214.612 220.547C213.783 215.206 213.976 209.312 216.452 203.692C218.93 198.066 223.679 192.757 231.884 188.563ZM222.567 239.008C228.008 236.905 234.703 231.115 237.899 222.619C241.122 214.05 240.8 202.686 231.939 189.522C224.101 193.608 219.606 198.706 217.254 204.046C214.865 209.469 214.666 215.184 215.478 220.413C216.29 225.642 218.109 230.366 219.729 233.787C220.539 235.496 221.297 236.877 221.852 237.829C222.13 238.305 222.356 238.674 222.513 238.923C222.532 238.953 222.55 238.982 222.567 239.008Z" fill="#0E101A"/>
<path d="M171.53 325.66L184.942 359.177H279.633L292.642 325.66H171.53Z" fill="#0E101A"/>
<path fill-rule="evenodd" clip-rule="evenodd" d="M171.348 325.536C171.389 325.476 171.457 325.44 171.53 325.44H292.641C292.713 325.44 292.781 325.476 292.822 325.535C292.863 325.595 292.872 325.671 292.845 325.738L279.837 359.256C279.804 359.34 279.723 359.396 279.633 359.396H184.941C184.852 359.396 184.771 359.341 184.738 359.258L171.326 325.741C171.299 325.673 171.307 325.597 171.348 325.536ZM171.854 325.878L185.09 358.957H279.483L292.321 325.878H171.854Z" fill="#0E101A"/>
<path fill-rule="evenodd" clip-rule="evenodd" d="M146.044 231.276C146.202 231.139 146.434 231.131 146.6 231.259C165.992 246.165 179.541 269.759 188.237 289.585C192.588 299.505 195.73 308.494 197.784 315.005C198.812 318.26 199.567 320.896 200.066 322.719C200.316 323.631 200.501 324.339 200.624 324.82C200.686 325.061 200.732 325.244 200.762 325.368C200.778 325.43 200.789 325.477 200.797 325.509L200.806 325.544L200.808 325.556C200.808 325.557 200.809 325.557 200.382 325.659L200.809 325.557C200.859 325.769 200.747 325.986 200.544 326.067C200.342 326.147 200.111 326.067 200.002 325.878L145.953 231.825C145.849 231.644 145.887 231.414 146.044 231.276ZM199.119 322.58C198.623 320.787 197.904 318.298 196.948 315.269C194.901 308.781 191.77 299.822 187.434 289.938C179.028 270.773 166.118 248.183 147.847 233.361L199.119 322.58Z" fill="#0E101A"/>
<path fill-rule="evenodd" clip-rule="evenodd" d="M227.672 208.422C227.904 208.456 228.069 208.666 228.045 208.9L216.269 325.704C216.247 325.92 216.071 326.087 215.854 326.098C215.638 326.108 215.446 325.959 215.403 325.746C214.067 319.128 214.148 308.497 215.003 296.319C215.861 284.125 217.499 270.333 219.303 257.366C221.106 244.399 223.075 232.251 224.593 223.346C225.352 218.894 225.998 215.251 226.455 212.722C226.683 211.457 226.864 210.471 226.988 209.8C227.049 209.465 227.097 209.209 227.129 209.036L227.178 208.776C227.178 208.775 227.178 208.775 227.609 208.856L227.178 208.775C227.222 208.544 227.439 208.388 227.672 208.422ZM226.027 220.181C225.845 221.227 225.655 222.333 225.457 223.494C223.94 232.393 221.973 244.531 220.171 257.487C218.369 270.444 216.733 284.215 215.878 296.38C215.158 306.63 214.995 315.707 215.741 322.194L226.027 220.181Z" fill="#0E101A"/>
<path fill-rule="evenodd" clip-rule="evenodd" d="M261.85 284.924C262.006 284.768 262.255 284.752 262.43 284.889C262.604 285.026 262.65 285.271 262.535 285.461L238.149 325.886C238.044 326.059 237.834 326.138 237.641 326.077C237.448 326.016 237.322 325.83 237.336 325.628C237.648 321.229 239.353 316.484 241.709 311.86C244.068 307.231 247.093 302.695 250.074 298.709C253.056 294.722 255.998 291.278 258.195 288.83C259.294 287.606 260.206 286.63 260.845 285.961C261.164 285.626 261.415 285.367 261.586 285.192C261.671 285.105 261.737 285.038 261.781 284.993L261.832 284.942L261.845 284.929L261.849 284.925C261.85 284.924 261.85 284.924 262.16 285.234L261.85 284.924ZM259.68 288.496C259.417 288.784 259.139 289.091 258.848 289.416C256.663 291.85 253.738 295.274 250.776 299.235C247.813 303.196 244.819 307.688 242.49 312.258C240.52 316.124 239.037 320.026 238.444 323.698L259.68 288.496Z" fill="#0E101A"/>
<path fill-rule="evenodd" clip-rule="evenodd" d="M311.35 298.055C311.434 298.244 311.375 298.467 311.207 298.589L273.414 326.014C273.274 326.116 273.087 326.126 272.937 326.039C272.788 325.953 272.703 325.787 272.72 325.615C273.237 320.548 275.921 316.278 279.606 312.736C283.29 309.196 287.997 306.36 292.618 304.154C297.242 301.946 301.8 300.36 305.199 299.326C306.9 298.808 308.312 298.429 309.3 298.178C309.794 298.053 310.182 297.96 310.448 297.898C310.58 297.867 310.682 297.844 310.751 297.829C310.785 297.821 310.812 297.815 310.829 297.811L310.85 297.807L310.857 297.805C310.857 297.805 310.857 297.805 310.949 298.234L310.857 297.805C311.06 297.762 311.265 297.866 311.35 298.055ZM273.725 324.705L308.883 299.192C307.971 299.431 306.805 299.754 305.455 300.165C302.082 301.191 297.569 302.762 292.996 304.945C288.42 307.13 283.805 309.917 280.214 313.369C276.876 316.576 274.443 320.337 273.725 324.705Z" fill="#0E101A"/>
<path d="M219.166 261.628C219.166 261.628 225.177 241.155 255.252 247.451C248.951 265.935 227.785 262.805 219.166 261.628Z" fill="#B8D2F0"/>
<path fill-rule="evenodd" clip-rule="evenodd" d="M219.166 261.628L218.745 261.504C218.709 261.627 218.729 261.759 218.798 261.866C218.867 261.973 218.98 262.045 219.107 262.062C219.213 262.076 219.321 262.091 219.431 262.106C223.777 262.702 231.102 263.705 238.162 262.343C245.426 260.941 252.452 257.023 255.667 247.592C255.707 247.473 255.695 247.343 255.633 247.233C255.57 247.124 255.464 247.047 255.341 247.021C240.192 243.85 231.031 247.412 225.652 251.84C222.971 254.046 221.248 256.453 220.194 258.311C219.667 259.239 219.306 260.032 219.077 260.595C218.962 260.876 218.88 261.1 218.826 261.256C218.8 261.333 218.78 261.394 218.766 261.436C218.76 261.457 218.755 261.473 218.751 261.484L218.747 261.498L218.746 261.502L218.746 261.503C218.745 261.504 218.745 261.504 219.166 261.628ZM219.889 260.926C219.837 261.052 219.793 261.166 219.755 261.266C224.132 261.864 231.202 262.793 237.995 261.482C244.92 260.146 251.516 256.493 254.672 247.779C240.041 244.833 231.298 248.328 226.209 252.517C223.628 254.641 221.969 256.959 220.956 258.743C220.45 259.635 220.106 260.393 219.889 260.926Z" fill="#0E101A"/>
<path d="M219.165 261.628C219.165 261.628 196.518 259.231 196.115 237.296C216.031 236.077 219.165 261.628 219.165 261.628Z" fill="#B8D2F0"/>
<path fill-rule="evenodd" clip-rule="evenodd" d="M196.564 237.711C196.901 248.226 202.475 254.07 208.013 257.309C210.826 258.954 213.63 259.926 215.733 260.487C216.784 260.767 217.658 260.943 218.267 261.05C218.408 261.075 218.535 261.095 218.646 261.113C218.623 260.97 218.594 260.801 218.56 260.609C218.437 259.922 218.239 258.939 217.939 257.763C217.34 255.408 216.336 252.287 214.72 249.209C211.536 243.142 206.021 237.311 196.564 237.711ZM219.165 261.628C219.6 261.574 219.6 261.574 219.6 261.574L219.6 261.568L219.598 261.553C219.596 261.54 219.594 261.521 219.59 261.496C219.583 261.445 219.573 261.372 219.559 261.276C219.53 261.086 219.486 260.807 219.423 260.455C219.297 259.75 219.095 258.746 218.789 257.546C218.179 255.149 217.154 251.958 215.497 248.801C212.182 242.486 206.288 236.234 196.088 236.858C195.854 236.872 195.673 237.069 195.677 237.304C195.882 248.458 201.758 254.666 207.57 258.066C210.469 259.762 213.352 260.76 215.507 261.334C216.586 261.622 217.485 261.803 218.116 261.914C218.431 261.969 218.68 262.006 218.851 262.03C218.936 262.041 219.002 262.05 219.047 262.055C219.07 262.058 219.087 262.06 219.099 262.061L219.113 262.063L219.117 262.063L219.118 262.064C219.119 262.064 219.119 262.064 219.165 261.628ZM219.165 261.628L219.119 262.064C219.252 262.078 219.384 262.03 219.478 261.935C219.572 261.84 219.617 261.707 219.6 261.574L219.165 261.628Z" fill="#0E101A"/>
<path d="M194.775 307.37C194.775 307.37 185.077 288.283 153.376 292.875C165.026 316.673 193.475 307.37 193.475 307.37H194.775Z" fill="#B8D2F0"/>
<path fill-rule="evenodd" clip-rule="evenodd" d="M195.166 307.17C195.166 307.171 195.166 307.171 194.776 307.369L195.166 307.171C195.235 307.307 195.229 307.469 195.149 307.599C195.069 307.729 194.928 307.808 194.776 307.808H193.544C193.537 307.81 193.531 307.812 193.524 307.814C193.468 307.832 193.385 307.857 193.277 307.889C193.062 307.952 192.746 308.042 192.341 308.147C191.53 308.358 190.362 308.631 188.924 308.883C186.051 309.388 182.092 309.812 177.762 309.484C169.091 308.827 158.897 305.148 152.983 293.068C152.922 292.942 152.924 292.795 152.989 292.671C153.055 292.547 153.175 292.462 153.314 292.441C169.265 290.131 179.724 293.774 186.205 298.034C189.441 300.161 191.676 302.435 193.104 304.181C193.819 305.055 194.331 305.796 194.667 306.323C194.834 306.586 194.958 306.795 195.04 306.94C195.081 307.012 195.112 307.068 195.133 307.107C195.14 307.12 195.145 307.13 195.15 307.139C195.153 307.144 195.155 307.149 195.157 307.153L195.164 307.165L195.165 307.169L195.166 307.17ZM193.339 306.953C193.383 306.938 193.429 306.931 193.476 306.931H194.014C193.986 306.887 193.958 306.842 193.927 306.794C193.609 306.294 193.116 305.581 192.426 304.736C191.045 303.048 188.874 300.837 185.723 298.767C179.511 294.684 169.451 291.12 154.042 293.225C159.814 304.51 169.494 307.978 177.828 308.609C182.066 308.93 185.948 308.515 188.773 308.019C190.184 307.772 191.329 307.504 192.12 307.298C192.516 307.196 192.822 307.109 193.029 307.048C193.133 307.017 193.211 306.993 193.263 306.977C193.278 306.972 193.291 306.968 193.301 306.965C193.309 306.962 193.316 306.96 193.322 306.958L193.336 306.954L193.339 306.953Z" fill="#0E101A"/>
<path d="M193.53 305.445C193.53 305.445 186.319 285.457 202.417 276.004C209.188 295.254 193.53 305.445 193.53 305.445Z" fill="#B8D2F0"/>
<path fill-rule="evenodd" clip-rule="evenodd" d="M202.566 275.592C202.689 275.637 202.786 275.735 202.829 275.858C206.266 285.627 204.011 293.125 200.884 298.174C199.325 300.692 197.551 302.598 196.167 303.874C195.475 304.513 194.879 304.995 194.454 305.318C194.242 305.48 194.073 305.602 193.955 305.685C193.896 305.726 193.851 305.757 193.819 305.778C193.803 305.789 193.791 305.797 193.783 305.803L193.773 305.809L193.77 305.811L193.769 305.812C193.768 305.812 193.768 305.812 193.529 305.445C193.117 305.594 193.117 305.593 193.116 305.593L193.115 305.589L193.11 305.576C193.107 305.566 193.101 305.55 193.094 305.53C193.081 305.49 193.061 305.431 193.035 305.355C192.985 305.202 192.914 304.978 192.83 304.691C192.661 304.116 192.44 303.288 192.225 302.264C191.795 300.219 191.391 297.388 191.498 294.254C191.71 287.98 193.974 280.452 202.194 275.626C202.307 275.559 202.443 275.547 202.566 275.592ZM193.529 305.445L193.117 305.594C193.162 305.72 193.263 305.818 193.39 305.861C193.517 305.903 193.656 305.885 193.768 305.812L193.529 305.445ZM193.761 304.743C193.811 304.705 193.865 304.664 193.923 304.621C194.328 304.312 194.903 303.847 195.573 303.229C196.913 301.993 198.631 300.148 200.139 297.712C203.094 292.94 205.258 285.89 202.177 276.659C194.674 281.292 192.576 288.321 192.374 294.284C192.271 297.329 192.663 300.086 193.083 302.084C193.293 303.082 193.508 303.889 193.671 304.444C193.703 304.554 193.733 304.653 193.761 304.743Z" fill="#0E101A"/>
<path d="M56.6037 95.8621C55.1684 100.248 50.4485 102.642 46.0623 101.207C41.6761 99.7715 39.2845 95.0505 40.7198 90.6643C42.1551 86.2781 46.875 83.8842 51.2612 85.3196C55.6474 86.7549 58.039 91.4759 56.6037 95.8621Z" fill="#B8D2F0"/>
<path d="M469.89 84.5488C468.926 87.064 466.105 88.321 463.59 87.3566C461.075 86.3921 459.818 83.5712 460.782 81.0561C461.747 78.5409 464.567 77.2838 467.083 78.2483C469.598 79.2128 470.855 82.0336 469.89 84.5488Z" fill="#B8D2F0"/>
<path d="M168.422 128.982C167.457 131.498 164.636 132.755 162.121 131.79C159.606 130.826 158.349 128.005 159.313 125.49C160.278 122.974 163.099 121.717 165.614 122.682C168.129 123.646 169.386 126.467 168.422 128.982Z" fill="#B8D2F0"/>
<path d="M435.075 48.354C435.075 49.6431 434.03 50.6881 432.741 50.6881C431.452 50.6881 430.407 49.6431 430.407 48.354C430.407 47.065 431.452 46.02 432.741 46.02C434.03 46.02 435.075 47.065 435.075 48.354Z" fill="#0E101A"/>
<path d="M362.21 146.837C362.21 149.409 360.124 151.495 357.552 151.495C354.98 151.495 352.894 149.409 352.894 146.837C352.894 144.265 354.98 142.179 357.552 142.179C360.124 142.179 362.21 144.265 362.21 146.837Z" fill="#0E101A"/>
<path d="M75.209 172.18C75.209 173.469 74.1639 174.514 72.8749 174.514C71.5858 174.514 70.5408 173.469 70.5408 172.18C70.5408 170.891 71.5858 169.846 72.8749 169.846C74.1639 169.846 75.209 170.891 75.209 172.18Z" fill="#0E101A"/>
</svg>
