<?xml version="1.0" encoding="UTF-8"?><svg id="Layer_1" xmlns="http://www.w3.org/2000/svg" viewBox="0 0 692 400"><defs><style>.cls-1,.cls-2,.cls-3,.cls-4,.cls-5,.cls-6{fill:none;}.cls-1,.cls-2,.cls-3,.cls-4,.cls-5,.cls-6,.cls-7{stroke-miterlimit:10;stroke-width:1.7px;}.cls-1,.cls-2,.cls-3,.cls-7{stroke-linecap:round;}.cls-1,.cls-5{stroke:#5e50bf;}.cls-2,.cls-4{stroke:#cfcfcf;}.cls-3,.cls-6,.cls-7{stroke:#0064d2;}.cls-8{fill:#f3f3f3;}.cls-9{fill:#0064d2;}.cls-10{fill:#e6e6e6;}.cls-11{fill:#ededed;}.cls-12,.cls-7{fill:#fff;}.cls-13,.cls-14{fill:#b2e0fd;}.cls-15,.cls-16{fill:#dcdeee;}.cls-16,.cls-14{fill-rule:evenodd;}</style></defs><path class="cls-8" d="m437.4,339.51h-7.05c-1.96.15-3.73,1.23-4.77,2.89-1,1.65-1.22,3.66-.58,5.48l9.6,26.1c.29.79,1.16,1.2,1.95.91.28-.1.52-.28.7-.52l9-11.81c-4.83-6.75-7.62-14.82-8.85-23.06Z"/><path class="cls-8" d="m289.43,255.03c-.56-1.7-.99-3.43-1.3-5.19-.16-.77-.16-1.57,0-2.34-17.35,1.29-36.99,1.33-52.34-7.74-11.79-6.97-18.59-18.74-19.32-32.34-.36-6.84,1.31-14.25,3.43-20.7,2.36-7.25,5.59-14.22,8.64-21.21,3-7.37,5.76-14.9,9.54-21.9,2.62-4.84,5.89-9.29,9.73-13.23-3.31-6.36-4.06-14.27-.86-20.7l-.46.13-.05.27c-1.18,6.21-5.26,10.8-10.45,13.66-6.78,10.4-16.93,14.83-28.58,19.41-46.6,18.41-48.4,39.63-26.16,82.49,8.53,16.31,19.96,31.75,16.06,51.67-2.89,14.72,12.15,17.03,16.06,14.4,18.08-11.98,41.66-10.39,58.16-24.53,5.44-4.77,11.5-8.8,18-11.97-.03-.05-.06-.11-.08-.17Z"/><path class="cls-8" d="m476.7,302.19c-12.19.15-25.03-1.42-36.98-3.6-11.17-2.04-22.59-6.12-31.98-12.6-.47,5.35.13,12.36-6.3,14.28-2.38.63-4.86.87-7.32.71,1.53,2.39,2.88,4.89,4.05,7.48,9.11,20.49,66.83,24.68,78.7,4.77,2.26-3.86,4.64-7.66,7.09-11.41-2.48.21-4.89.33-7.26.37Z"/><path class="cls-11" d="m288.81,249.62c-.11-2.88.11-5.76.64-8.59-10.61.35-21.24.15-31.83-.6-65.27-4.5-18.04-86.29-11.12-101.28,5.16-11.04,2.64-24.49,1.01-30.6-2.77,6.97-5.34,10.95-9.9,14.78-3.05,3.5-9.99,7.46-14.84,9.25-21.18,7.78-31.16,12.9-41.14,24.82-2.77,3.31-3.9,8.52-5.72,11.3-2.94,12.78,2.18,28.49,13,49.32,8.53,16.31,19.96,31.75,16.06,51.67-2.89,14.72,12.15,17.03,16.06,14.4,18.08-11.98,41.66-10.39,58.16-24.53,3.1-2.68,6.38-5.14,9.82-7.37-.1-.86-.16-1.72-.2-2.57Z"/><path class="cls-11" d="m406.5,279.95c.42,3.72.52,7.47.3,11.21,0,.07,0,.13,0,.2.23,1.58-.15,3.19-1.06,4.5-.25.86-.7,1.65-1.32,2.29.45.9.9,1.8,1.32,2.7,8.4,18.9,58.11,23.93,75.12,9l15.77-24.3s-33.26,27.84-90.13-5.61Z"/><path class="cls-2" d="m404.6,298.44c.39.77.77,1.57,1.14,2.38,9.11,20.49,66.83,24.68,78.7,4.77,11.43-19.48,25.89-37.23,35.87-57.44,16.34-33.05,6.51-61.33-12.44-90.63-10.57-16.31-29.81-28-32.4-47.05-3.68-27.69-24.56-47.23-28.8-77.17-.06-.42-.46-.71-.88-.65-.21.03-.39.15-.51.32-11.85,16.83-13.25,32.09-14.48,47.48-.72,9.23-5.35,22.94-12.44,20.93-13.31-4.04-25.61-13.85-36.46-23.53-7.37-6.49-1.74-14.86,3.76-21.36,5.07-5.91,2.17-17.32-1.01-15.3-16.64,10.25-33.3-12.55-49.91,3.03-13.35,12.41-22.74,33.05-50.53,23.96-7.52-2.46-30.81,20.06-34.71,34.34-5.64,20.78-18.67,26.7-34.43,32.9-46.58,18.48-48.46,39.69-26.18,82.55,8.53,16.31,19.96,31.75,16.06,51.67-2.89,14.72,12.15,17.03,16.06,14.4,18.08-11.98,41.66-10.39,58.16-24.53,2.34-2.02,4.7-3.87,7.09-5.55"/><path class="cls-12" d="m365.44,284.35c0,3.68-2.99,6.66-6.68,6.66-3.68,0-6.66-2.99-6.66-6.68,0-3.68,2.99-6.66,6.67-6.66,3.68,0,6.67,2.99,6.67,6.68Z"/><path class="cls-11" d="m441.86,345.84c-2.41-2.7-5.02-9.9-6.93-12.87-.68.48-1.26,1.09-1.7,1.8-1,1.65-1.22,3.66-.58,5.48l9.6,26.1c.29.79,1.16,1.2,1.95.91.28-.1.52-.28.7-.52l11.7-15.4c-6.34,1.19-9.86-.04-14.73-5.51Z"/><path class="cls-4" d="m470.25,333.42l-25.36,33.3c-.5.67-1.46.81-2.13.3-.24-.18-.42-.42-.52-.7l-9.6-26.1c-.63-1.82-.42-3.83.58-5.48,1.04-1.66,2.81-2.74,4.77-2.89h31.5c.39-.03.76.21.9.58.15.58,0,.87-.14.99Z"/><path class="cls-16" d="m337.07,328.74s25.31,4.6,46.75-22.56l3-4.59h-10.8s-7.63,17.1-24.93,17.1c0,0-14.12.48-14.12,9.53"/><path class="cls-1" d="m387.32,300.9c-16.08,27.18-41.4,28.31-48.55,28.06-1.27-.04-2.5.44-3.39,1.34l-25.5,25.49"/><path class="cls-16" d="m407.61,143.52s.56,19.68,7.04,35.04c0,0-5.7,1.8-8.36,4.37v-39.13l1.32-.27Z"/><path class="cls-16" d="m412.16,177.99s-5.53,18.9.9,32.69c-2.47.73-4.78,1.91-6.82,3.48v-35.1l5.92-1.07Z"/><path class="cls-5" d="m413.89,178.24l10.35-10.35c5.81-5.82,5.8-15.24-.02-21.05-4.54-4.53-11.46-5.64-17.19-2.77v34.8"/><path class="cls-5" d="m419.1,211.66l8.25-8.25c5.85-5.77,5.92-15.19.15-21.04-5.55-5.63-14.53-5.94-20.45-.7v41.4"/><path class="cls-16" d="m412.16,211.92s-5.53,18.9.9,32.69c-2.13,2.56-4.4,4.99-6.82,7.27v-36.9l5.92-3.06Z"/><path class="cls-5" d="m424.88,214.95c-4.88-4.88-12.73-5.07-17.85-.43v35.93c.99-.57,1.89-1.27,2.7-2.07l15.11-15.11c5.06-5.05,5.07-13.24.04-18.32Z"/><path class="cls-15" d="m293.8,241.28c.73-2.52,1.72-5.55,2.7-8.69,2.52-7.73,4.31-21.77,1.67-27-.04-.1-1.23,3.33-1.31,3.27-2.97,8.53-7.81,23.55-7.81,23.55-2.16,7.43-3.04,15.17-2.58,22.89.66,11.78-1.31,13.09-6.52,18.97-5.21,5.89-32.53,30.85-32.53,30.85,0,0,19.35-2.98,38.39-17.77,5.66-4.39,13.5-10.67,11.53-19.61s-6.14-17.68-3.56-26.46Z"/><path class="cls-14" d="m370.26,294.72c-1.33-2.05-3.17-3.71-5.35-4.82-7.2-4.04-28.25-21.32-36.46-52.66-2.06-7.85-3.49-14.4-4.56-19.8-.09.13-.18.25-.28.36-.39,1.02-.23,1.71-.67,2.7,0,.07-.25,1.06-.24,1.13.58,3.41-1.85,7.28-2.44,11.36-.66,4.6-2.21,8.42-.97,12.86.8.6,1.26,1.55,1.24,2.56.08,5,2.41,8.41,3.87,13.14,1.4,4.54,1.74,10.36,2.1,15.1s1.15,9.25.67,13.87c-.48,3.41-1.3,6.76-2.43,10.02h43.96c1.8,0,2.87-3.65,1.57-5.81Z"/><path class="cls-3" d="m309.91,185.21v-56.48c.02-4.87,3.96-8.81,8.83-8.83h79.46c4.87.01,8.81,3.96,8.83,8.83v163.34c0,4.87-3.96,8.82-8.83,8.83h-73.15"/><path class="cls-7" d="m365.14,284.58c0,3.69-2.99,6.68-6.68,6.68s-6.68-2.99-6.68-6.68,2.99-6.68,6.68-6.68h0c3.68,0,6.67,2.99,6.67,6.68Z"/><path class="cls-1" d="m224.19,323.88c57.16-47.7,56.74-48.6,59.52-53.51,4.17-7.37,2.13-12.6,2.13-22.45s6.62-26.66,10.2-36.62c3.57-9.96,6.12-26.1,14.79-26.1s16.52,10.18,14.55,23.86-6.98,28.38-6.98,33.6,16.73,34.58,4.57,63.5"/><line class="cls-3" x1="345.35" y1="131.04" x2="371.72" y2="131.04"/><path class="cls-10" d="m380.34,170.72c-.08-1.62-.99-3.09-2.41-3.88-3.05-1.54-6.26-2.75-9.57-3.6-11.35-2.99-23.41-1.71-33.88,3.6-1.41.79-2.32,2.26-2.4,3.88v26.87c-.13,12.02,19.31,22.35,23.21,24.3.28.14.59.21.9.21.31,0,.62-.06.9-.21,3.92-1.94,23.4-12.28,23.31-24.3v-26.87h-.05Z"/><path class="cls-12" d="m381.97,168.23c-.08-1.57-.97-3-2.34-3.77-13.29-6.76-29.01-6.76-42.3,0-1.38.77-2.26,2.2-2.35,3.77v26.1c-.12,11.7,18.79,21.73,22.59,23.63.53.26,1.16.26,1.69,0,3.81-1.9,22.81-11.95,22.68-23.62v-9c.02-5.68.03-11.38.03-17.11Z"/><path class="cls-13" d="m335.34,169.39c.11,0,6.08,2.32,6.08,10.49s-1.95,35.61,33.11,26.5l.07.22c-.37.32-12.65,11.45-16.31,11.12-2.57-.22-10.18-5.19-14.6-9.22-5.14-4.68-7.55-9.05-8.03-11.48-.18-.98.22-2.7.11-4.26-.25-3.71-.18-7.99-.18-7.99l-.25-15.39Z"/><path class="cls-9" d="m368.98,178.41c-.31-.31-.73-.48-1.17-.48h0c-.44,0-.86.17-1.16.49l-11.29,11.29-4.07-4.06c-.65-.65-1.71-.64-2.36,0s-.64,1.71,0,2.36l5.24,5.24c.65.65,1.71.65,2.36,0l12.47-12.47c.66-.65.66-1.71,0-2.37,0,0,0,0,0,0h-.02Z"/><path class="cls-6" d="m379.88,164.47c-3-1.54-6.16-2.74-9.42-3.6-11.17-2.92-23.02-1.64-33.3,3.6-1.16.67-1.9,1.86-1.99,3.2v26.87c-.16,11.62,19.28,21.88,22.73,23.6.33.17.73.17,1.06,0,3.48-1.74,23-11.98,22.89-23.6v-26.87c-.08-1.33-.82-2.53-1.97-3.2Z"/></svg>